<mxfile host="app.diagrams.net" modified="2022-04-27T14:12:39.810Z" agent="5.0 (Windows NT 10.0; Win64; x64) AppleWebKit/537.36 (KHTML, like Gecko) Chrome/100.0.4896.127 Safari/537.36" etag="CEulpMSYILnCFyDP0I0D" version="17.4.6" type="github">
  <diagram id="4aRTgim1bay6I50zqk4V" name="Page-1">
    <mxGraphModel dx="390" dy="422" grid="1" gridSize="10" guides="1" tooltips="1" connect="1" arrows="1" fold="1" page="1" pageScale="1" pageWidth="850" pageHeight="1100" math="0" shadow="0">
      <root>
        <mxCell id="0" />
        <mxCell id="1" parent="0" />
        <mxCell id="JT7VKMC9h3Lh3f7lyLex-1" value="&lt;font style=&quot;font-size: 40px&quot;&gt;CATEGORICAL&lt;br&gt;INTUITION MESH&amp;nbsp;&lt;br&gt;of the SENTIENT&amp;nbsp;&lt;br&gt;&lt;/font&gt;" style="text;html=1;align=center;verticalAlign=middle;resizable=0;points=[];autosize=1;strokeColor=none;fillColor=none;" vertex="1" parent="1">
          <mxGeometry x="180" y="110" width="350" height="80" as="geometry" />
        </mxCell>
        <mxCell id="JT7VKMC9h3Lh3f7lyLex-2" value="&lt;font style=&quot;font-size: 30px&quot;&gt;CHROMO-DYNAMICS&lt;/font&gt;" style="text;html=1;align=center;verticalAlign=middle;resizable=0;points=[];autosize=1;strokeColor=none;fillColor=none;fontSize=40;" vertex="1" parent="1">
          <mxGeometry x="412.38" y="475" width="320" height="60" as="geometry" />
        </mxCell>
        <mxCell id="JT7VKMC9h3Lh3f7lyLex-3" value="" style="ellipse;whiteSpace=wrap;html=1;aspect=fixed;fontSize=30;fillColor=none;strokeColor=#000000;" vertex="1" parent="1">
          <mxGeometry x="200" y="300" width="70" height="70" as="geometry" />
        </mxCell>
        <mxCell id="JT7VKMC9h3Lh3f7lyLex-4" value="" style="ellipse;whiteSpace=wrap;html=1;aspect=fixed;fontSize=30;fillColor=none;" vertex="1" parent="1">
          <mxGeometry x="380" y="270" width="90" height="90" as="geometry" />
        </mxCell>
        <mxCell id="JT7VKMC9h3Lh3f7lyLex-5" value="" style="ellipse;whiteSpace=wrap;html=1;aspect=fixed;fontSize=30;fillColor=none;" vertex="1" parent="1">
          <mxGeometry x="290" y="475" width="90" height="90" as="geometry" />
        </mxCell>
        <mxCell id="JT7VKMC9h3Lh3f7lyLex-6" value="" style="shape=stencil(lVhdcxs3DPw1esWQBAmQz276PzwTp9bEsT2Om49/31VVXkTotJm+SXe7PAIHLJZ30Luvj/evD4eSvr6/vXx++H78+P540D8OpRyfHx/eju/4ddAPB7379PL28Nfby9/PH8//X+9PyNOvLy/fTiv8OPNKkVpOrJJ+nq8kSenfC3+e8U/H59/ghxJ8ltQXvEopt/F5iK7rm7RB8F2qLfjO1/cZ3sRnHkBu0upKUHH2BJXhK8FEGyGUud5G6OIs5iy25hQvoTMCQmwroUhjW0oziRuhSiZZGuJrVkuTWhk+hwhMzG7ju1gIwKV3hk+64ocUgnep6/410bIz8VDVRbIzfF73rygikp827274JoXkv8WuUZNO2rhJyit+66NdfJW6xluTKFm/zmxs+ELbUqWvXVwrjVdn+W54k0Tyr3O1De8ymMzJWPNZhzSSnyK25rNlGi+qZaz4Qt9XlrHmvyE/FO9r/lubun0D39b8N/Qjqc8c67mhH0n+k/ia/zYkkf5Cda35tO3KDXxQdcui5H0lyQGP+iTxpjj1gB8UP9b+NeWCG6eYoYNovZUR8UbqQUVrxHfa7y2s36ai3tCTGC/0irwvn9V7gVeq57VFvP+feWQ2fcitkZotEgpJEIZ210iozEdAQkckGEkRXMP1lpzF4LHJzOnQhtcKUw+ESp5wMnMWCWxso057jYTO7GKNQmp9jqp9gs25fkHILAaPXggEZlVQS+1qS062pJCecUUgYgcvUCwSmLs5mYEQAwwViUFRCCUSKothXAnqmK9yXzBSnFCeqOOqGi0CCGwE1jYVfSMg0aSWMOKDSQCBiTZmfHBdXqjKYMgH5+6b0O4TNOoSCIPMBYztYPW9UiOCORwmuTfqTDGIVSOBVSsma1n7wW3qyD4B5ii8aac9bdtZ44JQSZYwDMK48j6Vap9gUZdA6OwJfdqVjTCoYUa7hInbE3WoqP4wH0AwdmSBZ1uz1DOdoSjmttZS54cW1KaVSGDVitoMR98O28OesM3MjVDpWRmF0EOW+MEIr0lXEeg2vd++00jR+oMwmDUpM+sbwanMIMQUttTpFwWE6GvH9SFGWvS04/U9jESFDBsI58eRqZvBBlp4Aj/gYQM9PEGpCGADbpHAdAkbCNo66iz4fYLOI85GwIgh1Yr1NATNT52n9XIksJ7G7Ry25NPp3yJ0jwR2sMVtC1nq09/sE+COPBKYCIxxlaVBvxXkdHV6u7j0HwU/fn3C/HR8ejp/Ab28Hz954tL5c6l++Ac=);fillColor=none;fontSize=30;" vertex="1" parent="1">
          <mxGeometry x="228.81633431570867" y="299.87757655552457" width="39.14285932268415" height="46.693899972098215" as="geometry" />
        </mxCell>
        <mxCell id="JT7VKMC9h3Lh3f7lyLex-8" value="" style="shape=stencil(hVdBctswDHyNrhiSIAnwnKb/yEyc2lPXzjhum/y+0KhNA7De3iQZaxHYXQBa+O5l//C8W0p6uV7OX3c/D4/X/cKfllIOp/3ucrja1cL3C989nS+7L5fz99Pjdv/8sEauV9/OP9Z/eN1wOSVKaYWV9LY9en/weQMcD6f/ARgAhlLtLr4QZxDfqPv/r1QriGeS5uIbjs/EPl6I+Xa8Ko3q4gd1AfGNsj9/LrCimknYAyplUCFRYvGATuvtTUCj4SnICnOWEjkwklFRJVEeHlCo9duALiQBUDGgEasH4KQ7T7qzdyoAZGqeaGMaVamZEIoDcCIdACDUfdJcYFlbj9LgCpNulTR7QIfia4XUl5UFyruZEAJgwBzqoOTLWjMGyNQAGAM6Ze/o2iBxtZL4Ktk7kePsAMU7riqskqWonjirGyKupijvlqFa16p78TWGSfPUh1exALWacoIfTI6IB9Nm8ENTKD5Tf/CDWQo1AfOXeB7MtIg4c3DwQy+QOOsRwQ8dO65MvdU6FSLO+lzwQ8cDqDClcCSFxFnrzZ4Hwd275GggwSOrTO1eGBKXBxXvB5tJiLh/ADokziZaWAMEi88AwdOC232eRpYmfCT5s+i8AwpOuseuobjzGSDsMlqh+GyzGL632rqCtJSnKaq4Vdqy08IbFEtjGrs68JESNe8HW+mQRacxPfBuMk3pdcUERW2xKdkKi5Q3zejRcecm9SQPOyESKo2QL+4X00L/Ycf/DbCLv18QT4fjcfsA+fh7/OKwR9vXCt//Ag==);fillColor=none;fontSize=30;" vertex="1" parent="1">
          <mxGeometry x="219.9591849190848" y="329.59186226981024" width="8.489815848214286" height="36.734706333705354" as="geometry" />
        </mxCell>
        <mxCell id="JT7VKMC9h3Lh3f7lyLex-10" value="" style="shape=stencil(lVbLbhsxEPuavRKSRhpJ5zT9jwBxaqOuHThOH3/fMba79cgOgdy0ErmYBznSJA9v26fXzZTC2/l0/L75tXs+byf5MqW0O2w3p93ZVpM8TvLwcjxtvp2O74fn+fv16YK8rH4cf17+8HvmxRAQwoWWwp95a934OhP2u8MVoVfU/Bl8QZfP4AWtDnhl+ITu44kImeADug74oh/jW0NvDp8QGsErmv+/QAvBZ0hy+IIUCT6i+ngUtX6Mrx3i8Q0iBK9jvusP7uMzYvH1jMikoNWOfYOjoJCOaUPxCo0FSlJQO/YpRIWSGqkgDYSGSpqmAW0Qhe2QkEpFj54gyCTpkqFeRtZnputiMvZ9sEYz4WUra/dCTUidEMzJvg9SFu/dJ1hZvbSloxAt5YDkc8gJkYQkFcGX1YJkfRBTq2+claETtcqN3Qr3v9mlDH62VpIc0o3hii5luE/Ii3JWQkNjBIvYj2DlFo19GSkrISMwQkXz0lBuUXNw81UylydGsGvBJ12542Ia51IV2ukYkAdC5ZMe1TvURm1kkxjJ1+gyygm+LPZd8XZVEHy+GfQNIRFpj2azq1EJPo4zz65qJoqwiHLFc2/ePESu3ib/CLb4/5B52e338zvo+nx8+NjW/GiSx78=);fillColor=none;fontSize=30;" vertex="1" parent="1">
          <mxGeometry x="200.85715157645086" y="329.59186226981024" width="28.89794921875" height="7.836757114955357" as="geometry" />
        </mxCell>
        <mxCell id="JT7VKMC9h3Lh3f7lyLex-11" value="" style="shape=stencil(lVhJchsxDHyNriiS4AKeneQfrrIcq+JYLtvZfh9MKXRMYKYl3aQRW5zG0mhyxzevD7fP+10Kr28vx2/7X4e7t4cdf9qldHh62L8c3vTTjj/v+Ob++LL/+nL88XR3+v58u6xcPn0//lz+4fcJFyiEBZTCn9OD3seTL6f1j4enD+sjlWbXR95eXykmuz6B9TFQqxaQOwAk6tkC/r3jOqBRcDu0tA1QztlxlgoASlosoJdtAAcqfQLEEGAaOJOUq7YQ6o4EYp2ZQneJAJnLjVKcAbonCFPxcRVKgEPxcW3EGRRfoGxqo46XXAf4sOYRt3WAkJj6ZiqAQ/PlmigIAFTXEGHEbRUgjrToSwLSwsRzWKXBPEix5bo8AXnQ/zOkdc8GSHcnSxJJwA5LEOcotT72XAcw1Zl0a7CBerGv1Ap1ENbuqrUxCWigpZjn4muRGuIgNnFVhQlo5aLVc7Vq/QYMKHNYa4UisIjKLAJLSwERWKR0Jl15hGFjQLjaqJp8oGRrCJ0yaKZ4ROmwrdcQmp3r3qo0iijdLlQqiGeyZ5JRCpwqPt2FoYQvw9wAEgkQp+7GkE4BqARi+7QEqoi02LmVlRUi3cbP7wDNHCLtDISOvog4VKpz22VNHMp0IZlJ53xOnJIhzbjtsi2NnM4BjHTkiDPNdjLmAEepAlK2ADSsVfPr3A+sDgVl2g0JdUUV5SHa2csNC6yzNApA9lgBgWeACiyQje6sIhdqaFg71VAAUg0F5Lk01Gwy4CCup1mHK3IoQoUtAOmS+odmSKdRLFsAm+k49lwHVJe4MIRnywOZFk19FPwWwLRo0rghgGtRBaA5p57K5CFpGFAeXMfpyQV5UUk2D6lA5VOAsTQpw+Of2rxuSDPsB3Edl9JQ2y0Az7qU3rt8C2B8nB6akVR6QOxwiq4CwnUAoXgdoI3JfSmgEqNDhAeUoSOXAjJVJAIewEPaLgdA5fOAdK74LODaWlJAvI50gAbcl/cZWfKHcHz2i9bLCNZJN0K1UnFZGAFo8PpHFcbcOlSsqsm6vQqPG17yCvSr4s73ZRinCw/fGbpVcbaK4TlXp4ix9KqnqELd2Z7xSHCDU+UX/b875CY8ENwZVwsExce5lzgCsOWnzG1JhO/T3QVowI7Qec4wCG2tN/VjLwL1w//L3PvD4+PpLvjj7/byVx+dLo75818=);fillColor=none;fontSize=30;" vertex="1" parent="1">
          <mxGeometry x="404.44903564453125" y="270.1632995605469" width="27.755057198660715" height="86.0816410609654" as="geometry" />
        </mxCell>
        <mxCell id="JT7VKMC9h3Lh3f7lyLex-13" value="" style="shape=stencil(lVfLctswDPwaXTEkwQdwTtP/yEyc2lPXzjhOH39faDxUSlLa1DfJxkoAdrGgJn542z+97qbg3q6X8/fdr8PzdT/xlymEw2m/uxyudjXx48QPL+fL7tvl/H56vt2/Ps2R89WP88/5Cb9vOEfOzaDg/nQ/fL2FHw8nFO4pgvBIwTfhTPPdVriSC014ItbtcO/JSxOfiQXEJyraxAsxyN6KK2363lHOAFAocwsIpHEbwEwptYAES4iOfPeGQsIAsLSwAoxDD4pOS4kLIMCUUqbUsmC057QNyANtxpuALuWBNyMul21AcX3R7Ch5AGDKbUpsRYOUysA0x1rVKkB83yXO5EBKkih1byhUgPhEyLfEsVIGTKvNbiu+6CmDlJQptvMZuU7IOiBVd1gAiQRMtBbi0gIKKQIIubZLCRuYATqmU4DzoFqFsADM1QDAu8Ek0ye+tILAzrSCyDbWQLBrCE96X1bZxuTOd6S76zAvAKO9hhCKd2alcJJWEMU8C1jaGiJUa/9PWZkHCUhqFG5JFDCgG42S4fbS3K87czkBCtFhtxQlj/wgkmtrEHNqsL00VKIWgPkoqmHwNLFHIF9Wiq3jCJOCM4oUSi3TEkmBYkcjl0+cP1SPXACFHHJ+V4WwAATyMG4va0MAajWpdfJWBwfb5sW1PBgzHnRpHuJ2txj3Dp0ihkOBrSfU1hx64gxQwG4xR+2IM/0i30iFQjvTNiEZyDuZ1Lou5Zrk+mlucA3bmAHUEDPFrksCmY6hKmcBaD1yrh9hl7PbxyG5X8F28fH98XI4Hm+fL//+33+v2E+3bx1+/As=);fillColor=none;fontSize=30;" vertex="1" parent="1">
          <mxGeometry x="432.85720389229914" y="311.306147984096" width="6.204031808035714" height="46.693899972098215" as="geometry" />
        </mxCell>
        <mxCell id="JT7VKMC9h3Lh3f7lyLex-17" value="" style="shape=stencil(lVjLbhsxDPwaXwlJlCjqnKb/ESBOYzSNA8d9/X25MLSJxM3UufnB0UokZzjaHd+8Pt697HcpvJ5Px+/734f78+OOv+xSOjw/7k+Hs33a8e2Obx6Op/230/Hn8/3l+8vdErl8+nH8tazw54KLIVAICyyFv5ef1h++XgBPh+d3gKbU4hRfIohPFGWIT6T6cbxG0nH9Qq18HF8rxTzEVypgfVEqdYiPgTh9DCiNShsBTEkAIFAaMxqFGGwpRxIeAQ1uiTOlcUtpzfImwHJSywjIVMETbL0wZtWWiOAM0ZUhNZIMANzboAM49VNtA1xauVBk0BnE45lZKVRQBspjUq0uaEOJ8rh+ziSAObZaGuMrNVCDQHkiQqQM4ycil/zJ9Y0aqCfmlpBEDJhf+r9rvMB8OmJWqzioV0wkYwFqpgCkwvdotY4AHeRLvKgTSpHOYqcFM9mxQLU/cxvg1KiFLsjbXc0kY1obUwBlyK4OzbQC9HVxdWhWaNQYrg5t5eq2Zoee9RWgxOAM4rjcGiWgRuLEwgBIIKWRTiIf8OCsqe/gykdU1xsGiGgUmh6GOU0BFMIAZaSoVa6AvBqgTYWw3kAAk8SpEIkq2hJTnrrPxjOonE+rVmgwqpsjxlGkq+JJzVBnTOfKOM81UEWexIR63JIJExolwl0ZV4BZDKBk4pTMKoN6SZwnqZEaUGPPUaMIao0NQCUBrbEBKPgMHpB6O14JMPOnn3qCaRti3AaAqaHWcK7BXEBASuYKl7EIiJvrucC563spJ1w4N4KySSWwq54PXHHzCcUxS+YNYVq9OTQ+oNZwImB2NaMnuAHBER7a+JXHwpmDLkjuua+3ArQ3y5UDJQnpp9TbTF0BdfDzYXHVyKP7awMToylqg3/spf9cfaozTGbEI8iSOoouzhrdWB2B7PqGLia63h9XgMLLlTo782ZltwHOe8cCXaI6AkUb7KDSBmjToRne9zYA+Pqg7s5qN0DEafXGlQR0hrbuIdcxDWdoc8YBa30zvk/STQL2b/E6CTEx2H9zVokh/c2qlflNTEDxzk6ai0H7Eao8xSNDfMWrJ/vw9uLq4fD0dHnv9f7/+UWX/XR5Sca3/wA=);fillColor=none;fontSize=30;" vertex="1" parent="1">
          <mxGeometry x="399.02044677734375" y="299.55103846958707" width="10.000017438616071" height="43.10206168038504" as="geometry" />
        </mxCell>
        <mxCell id="JT7VKMC9h3Lh3f7lyLex-19" value="" style="shape=stencil(lVjbUlsxDPyavGpsy9dnSv+DGULJlBIm0NvfV27GBuk4O+QtHLTn6LJayd7xzevj3ct+F9zr2+n4ff/7cP/2uOMvuxAOz4/70+FNfu34dsc3D8fT/tvp+PP5/vz3y1237L9+HH/1N/w542KhVjoquL/nJ46c+//g69n+6fCs7SMb+9iAPVOJyt5TyZftuRFrf5hcAvaFqjP2qQL7OD4/7CMlEC+Lu17ZJ4rlsn2olPX7M3EE9pn6/z7YF3LAf3HXN2NfArAPNt5KAfkv8SZjXxjYO2LNh0YBxOsrNWfsK4jXC9+q5o+jBAL2mZwO2HtiwCAfKesIfCAPQvZMQVNCnnjAIXGg6JrJNx1ogkbNhJDIg5grJdNjk1VL+zIyOO3L6LqlfR7hTfvJ8nXTj5JOe4kIkIJtzwgLGZGaquaoPEH+BHK6wuIhyo+nqPMjTV+A/46qJoRkmAEhHAWdz95kwJ8pyVPj3FCBT9p7yle9X0QXvt/4L6qaQP5lROj8cKIK3u+tJorKeySKFDX/uUKRlu4zM0ZECNQ3j2rOmeGhQjTymp8xUPIgXqGv+QBDh6S/s44gJuhRbyidopihSxKz6YG+KaDB6jdJanAzYHFAq2Ly5IBLkvSqg04B0lo8NnVIMj1BWtOGSEkaHzRyKkOnJkCegBiyfEFnKVWqIIacbdDZwYWieDsMMt64SrLqlXnM9DWgWXnPcSwN6/HEdkfIeD7VPNp9AgoU4NrI6Tpk6UE0YUXi9cgpbuRtDeBBhAkQOiINSJR00IWH7KwBmZpma4lwFWyb1V1KiXblJlOmWkADdWjNtmgR4UG7lNuMkoJH4RqBloUVosKdf4WQLRWteEtEBdVbIKrDor9AeEjaNaJel906Ne7TCLwMrBFI01aIeHWuEoXrmCgINMBWiAzXshWijFXnUkOZ02qtuGU3HSiADKohADaABhMlAL8BoN1DVKRpFWluDLVLAHOkF0BDLolkaHHuco3Smu12I4CGAGlzasUbWotjrE8A4yNcGBvuBwA6t24nkgAQX6VM5tzanQTUEOaYc6sAKghayGyo0fOGALItFQtAtwe97fXMk1IisRFl8WwBEa0Scpb3FoDmtqh2NkHPNfLSOmR2cQGg05BMq5AsAFW6TI8noMIrDRnr5sDVRz8oXOFNTze4KZewadFJxzXADSK83+PYm0b58X5N+XB4ejrfcn78v73WlEfnK1G+/Qc=);fillColor=none;fontSize=30;" vertex="1" parent="1">
          <mxGeometry x="324.28574044363836" y="476.5306876046317" width="20.081647600446427" height="88.81633649553571" as="geometry" />
        </mxCell>
        <mxCell id="JT7VKMC9h3Lh3f7lyLex-21" value="" style="shape=stencil(lZbZbttADEW/Rq8X5HDW5zT9jwBxaqOuHTju9velq47joVUGepPlcwUOlzuc5OFt+/S6mQK9nU/Hr5ufu+fzdpJPUwi7w3Zz2p31aZLHSR5ejqfNl9Px++F5/v36dCEvT9+OPy5f+DXrmAhEF1mg3/OrjJD+vvg8C/a7w42gVaS8hi+IPPAJVRw+g6vhJTt8QrJ8YIePCG3gI5oXv9j8ROTm8Iw0fl/QnHhqQy2G5+DwBTUMfEAmh08o1fBUHV6QxnpxL/gyz7387zzF//Oloo35ISTnvCXbeK4Nu8xrusManiFxBZ8ral7Daz+v4gXF5sflGUwr+FTtPH7AZ5Cs4cX6wwc823kkBKffoubf9qfXb1HtaYw/9IIv8wIZ+yciOn4VCTLmvyA5fiIZbcwPM6JzYLkfyNxLuCwg8OgomqLsCNTBi7GU4nqKWlQ0Hifd9ZYFhDomSVpP86KAa0/6tQrq28URZMhoc9ooxTkDq42PdUihT/ayQH15NLp0taZlAaMYQUPzQiLksXA5IDmCZkchp24Gy16NMiY16+Xs9GpBGVNUtNmdE2drXWrG7Nw1d9ZSrpfVsleATDwV4rRd7NF2Xi8rr2J31lX1C07TBdvVejkHx1tCd7bON3J3G7aT3wKaEw/Zq6n5uxbZIdNlrTlTebcq3myP/wT68L5qvuz2+3lTvf3frqb6al5r5fEP);fillColor=none;fontSize=30;" vertex="1" parent="1">
          <mxGeometry x="294.0816301618304" y="519.9592590332031" width="37.877554757254465" height="15.673479352678571" as="geometry" />
        </mxCell>
        <mxCell id="JT7VKMC9h3Lh3f7lyLex-22" value="" style="shape=stencil(lVZdbyMhDPw1+2oBBgPP/fgflZpeVpcmVZr27v79ebViL4ZkpHsjxLOM7fHAxA+f+5eP3RTc5+V8+rn7Nb9e9hM/TiHMx/3uPF90NfHTxA9vp/Pux/n0dXxdf3+8LJHL6v30vXzh94pz5NwCCu7PuuHdtvW8Ag7z8QrgKcT/AjB5MYBaKdX78YlKsvGFHIjPxGzjM8VwP76SdN8XCgISDsMBsVG8DUjkgwUwMSpppuotwFMEKWvXigWUShVQ0iZwtoBCEVAKQs5WqQjVAgCFxAqpJIoRyMJT6nJgKiBpjq2IG0A7A5Lm3AhsAEcJUIqOsj0ha5VA0pFb1TeANLXfBgyUMlP2YBgcVSu+7KFaU2zibwAplBAgk1hpSILyloGSBNg40RQ7So48KKsIiT1BScYMALVPWssgoNN5mOnkoWnkYaajuhKglDPlagHYNVSb0fYhYhNQ9XeuwXimdSDZqlVHqoKkS27K2QA6tCDpMnhrwN69+JydOLV/JO8a+rKGQAmUtQ4j6ivsQx06rfYcQNJV+gvOa6fRBbQ56QYIzZ5vAwYteUcMXENvzN7um9neiy/WlqQ54e34St4S0qKhmuqNb8eNSRCf2vPx0GGuniANoFaOKjoQ6t8wuvj3ZHqbD4f1xXX9f//E0q31ecZPfwE=);fillColor=none;fontSize=30;" vertex="1" parent="1">
          <mxGeometry x="331.9591849190848" y="488.9388035365513" width="35.10206821986607" height="31.6734619140625" as="geometry" />
        </mxCell>
        <mxCell id="JT7VKMC9h3Lh3f7lyLex-24" value="" style="shape=stencil(fZTLbsJADEW/JtursT3PNaX/gUQoUSlBgb7+vhOFUhwa7ybOPR5fj+VGVuf95tQ27M6XoX9tP7vtZd/IU8PcHfft0F3qqZF1I6tdP7QvQ/9+3E7fp82oHE9v/ceY4WviyDk4N2LsvqfQLfA8AYfueAeUgCxKL8h5WZ8Tgs6fUGhZnwp8VHpicDGAiDADPNgbAMEVDWSIUVL0cPoGZojhOWQEfUM17cQABDRrKiEapn1C1CVJhBimPYN0Sd7BG6bl4d18QDRuEEYmBQSHnJaB2pNrxTcgwhujVyfNayASCi8DVBB0W2MCBQNI8y4l/h2W/wEBZw3YL00ORXvIdbyNLj2MUo6m5wgOSl8I3shfJ4+1PkCMFj2si7sNcgXq4W/d7LrDYdpW9//n66mGptUm6x8=);fillColor=none;fontSize=30;" vertex="1" parent="1">
          <mxGeometry x="201.33333841959637" y="336.04764556884766" width="3.0476175944010415" height="8.190470377604166" as="geometry" />
        </mxCell>
        <mxCell id="JT7VKMC9h3Lh3f7lyLex-25" value="" style="shape=stencil(fZTbboMwDIafhttfiU1O1133HpVKBxorFaU7vP2CMjHMhu8cx5/tmN9UfLi3p1tTkblP4/DafHTnqa34qSLqrm0zdlO2Kj5WfLgMY/MyDo/ruZxvpzlytt6G9znDZ+GsMTBmxsh8FdfieC5A311XQIoIQcQzrFPiLaIT8RGR9uMjw8t+rINTgJAb2gAJJimABUuAcgUF8ITk5ZMJddwHXA27mVECh32g9giyQvaQ3wfmfHKqjsAawGCWQAQpLVFAiALwy6v+BxYdLECCV8ZqI5KsEGpERXo2X1spJQOrSMNaOPkdYk5RK+KDIRGf8jKwMtWt9JIDKcL4s2ur9fsBsvG7q5eu78uqr++3u51d5b/Ax28=);fillColor=none;fontSize=30;" vertex="1" parent="1">
          <mxGeometry x="203.61905415852863" y="335.09525299072266" width="5.142852783203125" height="12.095245361328125" as="geometry" />
        </mxCell>
        <mxCell id="JT7VKMC9h3Lh3f7lyLex-26" value="" style="shape=stencil(fZTdbsIwDIWfprdHiZ3EyTVj74FEGdUYRaX7e/ulqujmDnwX0vPhnxy74c31uLu0DbnrOPSv7We3H48NPzVE3fnYDt1YTw1vG94c+qF9Gfr3837+fdlNyun01n9M//A1c945ODdh5L7nq+XieQZO3dkGPIgfA0UQotIHUDD0BPFKnxGToXcIrPNxSEYFOSEEDQREMgAPzhoo8AYgEVGnVGt2+TGQMrKOQAWhGAAh6kfgADGAmNY1hPqOFuBAooFalX8MBF7XEJe+3QVYIDpCFDjDSUzwOkJtQzCsRAk5aUBQxAAIrK0hfGvD/WnItyYuQDanoVqNdUqZ4Qx7T2bWKWUBGxFkPT51QIoxDhFMWs8Q49kIWedTB9zytr+Vt+gL2PDR//Xi1hupHn732aE7neZ1+Pf7ev/Vq3l38vYH);fillColor=none;fontSize=30;" vertex="1" parent="1">
          <mxGeometry x="204.952387491862" y="333.1904881795248" width="8.952392578125" height="20.666676839192707" as="geometry" />
        </mxCell>
        <mxCell id="JT7VKMC9h3Lh3f7lyLex-27" value="" style="shape=stencil(jZXLbgIxDEW/ZrZXiZ04yZq2/4EElFEpIKCvv6/RiCkegekuZHyIff3qeHZcz/fLjsLxdNi9Lb/6xWnd8VNH1G/Xy0N/0lPHzx3PVrvD8vWw+9guht/7+dnyfHrffZ7/4XvgYggI4YxR+BmuxouXAdj02yugNeRo7CNCduwFqRj7BEqOfQQ3Y19RHPuqn619jIjVARLYOhTz5cmbQGlINuIHEhVGs5JSRnQAKahsAA6uS0JgskBGdoAsaFalFHyAQDbo5KuUCsQC2VcpMciqlDUz8T7AFc0mLlcIO4Cqbl1S3cSpVY6o1iURULkPaG1KtcDYHrcBuRTCBSiE7LhEjCgWyCAnDzTmdQQKivNCrMhW1uonLgpysoDqJg6QUCctzchO4iIj2fKuftDa8sWqVLXgPZfCtDR0jnguNUQbQgtuS5fpCNC5Jk4lCcRG3DTxztjTZrQToyUUp/ASgs1Ze1DZaBP7AvbqdDouWnX9D2i2cXSvEHn2ky11tbj+B+gDYgTSw99WXPWbzbBUr79Pt6heDRuYn38B);fillColor=none;fontSize=30;" vertex="1" parent="1">
          <mxGeometry x="207.2381134033203" y="331.47620391845703" width="12.952382405598959" height="24.285720825195312" as="geometry" />
        </mxCell>
        <mxCell id="JT7VKMC9h3Lh3f7lyLex-28" value="" style="shape=stencil(fZXbbsIwDIafpre/YjvHa8beAwkY1RhFhZ3efkEVHc5W36Wpv8SHP3Ynq8thc9517C7XcXjdffbb66GTp465Px12Y3+tq07Wnaz2w7h7GYf303b6Pm9ulrfV2/BxO+Fr4sg5OHfD2H1PW/PG8wQc+9MDUBJiVPYMYcOekEnZJ5SybJ89ij6fPGIyAELIGshwBpACuOgIPMgAYgYnBYhDyQZA8DqnUrPml4FQXdJBe0E2suoLPGugIFiAh9NlCB5ZlgEpIJ3WUG8gA6jn6aCjIBmVFgJ5DSSz0jzXdZaSQzbSyqHVdqouWTcQimggIoRlgEqb1lQrY0iD4j3EO5DnO/8Hqvp1pbOYD4gYubkhmFqiWgcdQ072k0YM2j6jGMrIiDqpxYGNpFYV6KrVHmJpO7YNoDC8UeWAoB9bEQSj5XmExn9vqkju72S2j3CWTOF1P6o9lizRITbnZ5DhP8Fxax8M/x2k8cfuLX8myMNQWQDaghWwElBd/E6sfX88TgPv8X874erWNB1l/QM=);fillColor=none;fontSize=30;" vertex="1" parent="1">
          <mxGeometry x="209.61905924479169" y="329.7619196573893" width="16.285720825195312" height="30.047627766927082" as="geometry" />
        </mxCell>
        <mxCell id="JT7VKMC9h3Lh3f7lyLex-31" value="" style="shape=stencil(fZTLcoMwDEW/xluNLfm5TtP/yExI8ZRChtDX39eMmxRB0U4W94CuJaHocGtP10ahvk3j8Np85vPUKnpSiLlvmzFPJVJ0VHS4DGPzMg7v/bmer6dZOUdvw8f8hq/KGa1B6xlD/V1Tj8RzBbrcL4CUgALTG/Ak6BEoMn0EK+gjguN6EyCkfSAEiJ4BWD4pOAga0DKANBi3D/jikFum4iHuAw7BIwNsEEuyBNEwwDnwdh8gB8kxwNPd1b8AJsDEgQTeCACB46aDAyv0wcQ1ELXowWxMRwcmCMBmVGNxhULj1n0rw2iFNmwKSg6CMBjmPskPfbkDYbY39S+27xcowd+qXnLX1U1fPl+vdknV3wIdfwA=);fillColor=none;fontSize=30;" vertex="1" parent="1">
          <mxGeometry x="215.1428680419922" y="341.1904881795248" width="10.000010172526041" height="19.4285888671875" as="geometry" />
        </mxCell>
        <mxCell id="JT7VKMC9h3Lh3f7lyLex-32" value="" style="shape=stencil(hZPBbsMgDIafhqsFNgZ87rr3qNR0QcuSKk239e2biGkLRGE3Y/zZP8ZWdLi1p2ujUN+mcXhvvuJ5ahW9KMTYt80Yp9lSdFR0uAxj8zYO9/6cztfTErlYH8PnkuE7cUZr0HrBUD+S69fxmoAu9itAHDifxTOQ7MeHUOY3BEz7gBfQnAFowbgKYIFDDghYsw84hkAZQAHE7wPM5RusAFYk2Y0kFjCVLtFGkgvAFUnoQecV/PwxXAE2/xwIsFLBIAjmwD9dKguIhVBTBFzEe/CVHm0esJrdH2A2/gb9Ersu7cn6vlyM2ZWWio5P);fillColor=none;fontSize=30;" vertex="1" parent="1">
          <mxGeometry x="217.52381388346356" y="350.52382151285804" width="5.7142995198567705" height="12.952392578125" as="geometry" />
        </mxCell>
        <mxCell id="JT7VKMC9h3Lh3f7lyLex-33" value="" style="shape=stencil(fZFJDoMwDEVPk63lOAN0Tek9kAglKiUoQIfblyhVyyDY/fz4xY4/E1lfF51hhP3g3c08bTnUTJwZkW1r4+0wKSZyJrLKeXP1bmzLeO6KUBnU3T3CC6/IcURADBjhO1o/4xKBxrYz4ETreo6g+T6gNcglIDiktA/IFFSyANTxSHIzktJAah8gAr3skEggefCHdYOwhYMGm53O1vwFJvHPpLJNEyOd368znKyYv8g/);fillColor=none;fontSize=30;" vertex="1" parent="1">
          <mxGeometry x="213.80953470865887" y="358.52382151285804" width="2.3809611002604165" height="4.19049072265625" as="geometry" />
        </mxCell>
        <mxCell id="JT7VKMC9h3Lh3f7lyLex-34" value="" style="shape=stencil(fZXLUsMwDEW/Jts7lmRb1prHf3SGQjOUlinl9fc4EwpVoNq5jk7UK11Fg1y9bFbP64HTy/Gwf1y/j3fHzSDXA/O426wP47GfBrkZ5Op+f1g/HPavu7v59/NqipxOT/u36Q0fM0cpIaUJ4/Q5X/1c3M7AdtydAWbIy/hKQXxFUhefYSWITyjVxROB9TLQFMoeyMhBhsZo5AFDy5cBVbA4gAuqBUCCNQcIg4Ii1Qz1GaSBggzFID5DlpOq/wGBmgcaLChrf9x8hukVLQAy2BujdA1BWcVgvtOVYBIAdSm6FkigQfo/9p2uDbkGQDefz6DdfHwZYIV50dr7EJhvco4fBy2wKIOAvYZuxxaIZvoDGDSY6O7+mh3QCCVoHCmqd2uTsA9Ult+M1hsXiCY5DeQPoJBgHojBvnHNwsZRWlrDCCmwhoGKj2fUIF5R/LxZDj9jZek8K2GbM8j7yPRU5P8FL+ffWljRP2vhbFN8A/3wu1bux+123krnz5drqF/NK0xuvgA=);fillColor=none;fontSize=30;strokeColor=#069968;" vertex="1" parent="1">
          <mxGeometry x="230.85714721679688" y="301.76192474365234" width="10.666681925455729" height="20.761912027994793" as="geometry" />
        </mxCell>
        <mxCell id="JT7VKMC9h3Lh3f7lyLex-35" value="" style="shape=stencil(fZXbUgMhDIafZm//IYQEcu3hPZyx2h1r69R6envprNUCNncsm48E8ieZ+Op1ffeymmJ4Pex3T6uP+f6wnvh6inHerlf7+VBXE99MfPWw268e97u37f3y/XJ3tDyunnfvxxM+F45CQAhHLIavZet343YBNvP2DDCDlM4+J8de+/MTMjn2AayNPQUkJ6CSIa0DYpATUYmw3AIZhS8DefAQGSE7ACHHFigoehlQgaUG4ITkeNBw+v0LGKxcBkSQ27SlBHU8CCFKCxiC4yFlkDWAMNjJdBryIPUIJ6R6ReEGqM+QxQG0v4MmkAcwYvtKWkNyxMdDHtSQnUzHKjVqgBwh0QEE2mopC4I5ACO1Wqr6ZecOkSBtxWWDOgANeSjk1jQNly41SOeVaEhcEUQvJOm7TFG34mqPkFatpYCdJkCE0ma6mH/pQRpGIKeAanm1abB4UuP/XaYvH6v15thr35QsgR0hDcIzcRtx6lVRWz87yh50avn0Av/rFKq9fXHiHxJmBeoU/9Dw6qhLjv0wOM9m6Q9QF3+D92HebJa5ff6/H9R1axnyfPMN);fillColor=none;fontSize=30;strokeColor=#069968;" vertex="1" parent="1">
          <mxGeometry x="232.76192728678387" y="304.2381057739258" width="15.238077799479166" height="25.90478006998698" as="geometry" />
        </mxCell>
        <mxCell id="JT7VKMC9h3Lh3f7lyLex-36" value="" style="shape=stencil(fZXZcsIwDEW/Jq93LMnrM23/gxlCyZQCA3T7+zqTSVoZ0Jvj6Hi5urI6WV1261Pfsbtcz8e3/mvYXHedPHXMw2HXn4drHXXy3Mlqezz3r+fjx2EzfZ/WY+Q4ej9+jit8Txw5B+dGjN3PNLVMvEzAfjjYACH4x0BJEFbx0dygMALp9QkxPAZyQSoa8AhsAAGSNFCXIANwoKwADvD5MZA8RB9JbJFiBjdAgjdUigwJCvCMbBwpxHm9BcigZAAEp1UK9g6+5tVrwL6DJ1DUziB4QyWJCFqlGGbd7gN8472MbHiJc2u+xHCGl6oRSOeh5r4Yl+Zqb33pZKtUvVl0HlJBNtxKCUEUkAlZDCC01shiVhwJkpa1lhQZeSAGNztEsx7IoeiKy8k0X0FsNiizG++XNFhrVJx5g9RatdBcgPfrs5W0PmvRyHJA1LVT7BT4WY0l3iMaPhWU5vz1ETT0FDht6xLBVuHMhbvE12ffMilio3/NiBHvEKmNtwr5tkm5tq/VwV9X3A77/dRU//9vu2idmjqwPP8C);fillColor=none;fontSize=30;strokeColor=#069968;" vertex="1" parent="1">
          <mxGeometry x="236.000005086263" y="305.7619196573893" width="15.619049072265625" height="24.761917114257812" as="geometry" />
        </mxCell>
        <mxCell id="JT7VKMC9h3Lh3f7lyLex-37" value="" style="shape=stencil(fZTZcsIwDEW/Jq93LMvrM6X/wQyhZJoSJtDt7+tMahrRoDdHvidarYY3l+Pu3DbWXK7j8Np+dvvrseGnxtrudGzH7lpODW8b3hyGsX0Zh/fTfv4+7ybldHobPqY/fM0cGQNjJsya79l0MzzPQN+dFkBO8CT0FikoegfDQp/B6bE+RTgr9FQspAAMn2RABJsfAzHCOgmk6nMVCBk5CIADLCuAhZc1daUK7jHgfb2ugCd4paouIsqQfMlBaZujGnEFggMrHriEFCWQEZWkS1+TF0B0dVTWAV9TvAF6H0pfk8whEaJSVkoI0kNycFEBPIJMuowjKTkQw9x5yLBKWcnAySplqsOyPt6w8rllVvsWwHKSsgcpRWVk+XpyyVirKVyW+lS7sqr/t14WG+cXKIe/9XTo+n7ebsv7+3VWTPMq5O0P);fillColor=none;fontSize=30;strokeColor=#069968;" vertex="1" parent="1">
          <mxGeometry x="242.47621154785156" y="307.8571548461914" width="12.761922200520834" height="24.380961100260418" as="geometry" />
        </mxCell>
        <mxCell id="JT7VKMC9h3Lh3f7lyLex-38" value="" style="shape=stencil(jZTdbsIwDIWfprdHiZ3E8TVj74FEGdUYRcD+3n6pqm64aqPduam/2LGP3fDmdtxd2obc7X7tX9vPbn8/NvzUEHXnY3vt7sVqeNvw5tBf25dr/37ej9+X3eA5WG/9x3DD18h55+DcgJH7Ho9+D55H4NSdHwANYDL+CaTr/jlCgvH3ARTXARHkaADykEpGEuDYAhGB14EkcDYCE0IlQlTkbAEF5wrAU00mIERkWgeCIIkBoq8DhGTLGsurKimxQGxKieArEZjhbYSUps4sAqQIyQDip84sAxFsU5JY1V4RglqtSkYM64DPUBshl7JKBShtmgElpYq8Pc3LmmUSyzLgEGyn1YErb8hgq26lqvbKONoalYklX1ESkh0GjdCaLuBn98u0EZYfDLUy0gxfyd9B7KypTkJc8Z/tr4eV9j+gBIhGE8X425eH7nQa1+3j//l+LUfjbubtDw==);fillColor=none;fontSize=30;strokeColor=#069968;" vertex="1" parent="1">
          <mxGeometry x="246.57144165039062" y="309.57143910725915" width="12.285730997721354" height="22.19048563639323" as="geometry" />
        </mxCell>
        <mxCell id="JT7VKMC9h3Lh3f7lyLex-39" value="" style="shape=stencil(fZTbboMwDIafhttfsZ3jdde9R6XSgcZKRdnp7ReUieFO5M4x/mzs+E8jh3t3urUNm/s8ja/tZ3+eu0aeGub+2rVTP2erkWMjh8s4tS/T+H49l/PttEQu1tv4sWT4KhwZA2MWjM13ca2O5wIM/XUDpAQrKp6RbCWe4ayKJwLFfSAKOOkCBi7tAyHC6w7YgV0FyPmcAkQgsg94QvQKsIRE+4DLMwkKcKb6S9aB9FRdQOB9QMLjlLyFq4xVctOkgDyGUOmB13wr4EGVzaAE1kDMFXwFsIi66Zg9tQoEwxqIsJWmA7wukAihskoCr68tOdjKLRhEvUgpwlTE8E9rG/n9Atn40+qlH4Yi9e33R21nV3kX5PgD);fillColor=none;fontSize=30;strokeColor=#069968;" vertex="1" parent="1">
          <mxGeometry x="249.33333841959637" y="312.8095474243164" width="11.238128662109375" height="19.428568522135418" as="geometry" />
        </mxCell>
        <mxCell id="JT7VKMC9h3Lh3f7lyLex-40" value="" style="shape=stencil(fZTbcoMgEIafhtt/gIUFrtP0PTITU53amDH29PbFsbauUe7WdT/g35Oiw70+3Spl9X3ou9fqszkPtaInZW1zrau+GbKl6KjocOn66qXv3q/n6ft2GiNH6637GE/4mjijNbQeMau/J9ef43kC2ua6AJJHMCI+O+x+fIywScQbgnf7QEjwErAW3hQAD2IJMGLaBziAowDIIYV9wCewE4AjUOFJ3sCRTJKB5X0gn5dWQJzzvAlQgJFPYg9XqBvpOSczEAx0IUv2odCB5zu3Ab0GooYviDYM6yXgwAUNJjeC7NXcXbqQpQQnOyNlzQUJDJYKEs2F3E4qfJDxPN+4LQB6FR+RCjV4mM3FuP4C2fif7UvTttNqWP5f74LsmvYIHX8A);fillColor=none;fontSize=30;strokeColor=#069968;" vertex="1" parent="1">
          <mxGeometry x="251.6190694173177" y="316.428586324056" width="13.333318074544271" height="18.857157389322918" as="geometry" />
        </mxCell>
        <mxCell id="JT7VKMC9h3Lh3f7lyLex-41" value="" style="shape=stencil(fZTZcoMwDEW/htc7tuT1OU3/IzMhDVMKGUK6/H3N0CaIFr0JcY+tzap4dz0fLnVF5joO/Wv90RzHc8VPFVHTneuhGYtV8b7i3akf6pehv3XH+ftymJST9da/Tyd8zpw1BsZMGJmv2XV3PM9A23QLIGe4KPQWmRS9A2Whj0iKPkWY1fkeQQkoMZglkOHdNhADchIABUQlpJARnADYwSUFsGArAEdq0p7WIXmDFLYB59Yh+YSoABzgZUghgJUcqBQxyL6VHJSyEsOQBBJ83gZshJM3PFr5P0DwclTLsAQlpFISORnZghS9X6dchtdapaiwclRzqbJXEvitx12fQEoP/jzNxWv9AYrxeNqnpm3nzbD8v14FxTWvEd5/Aw==);fillColor=none;fontSize=30;strokeColor=#069968;" vertex="1" parent="1">
          <mxGeometry x="254.85715230305988" y="319.8571548461914" width="12.000020345052084" height="16.571431477864582" as="geometry" />
        </mxCell>
        <mxCell id="JT7VKMC9h3Lh3f7lyLex-44" value="" style="shape=stencil(fZTLcoMwDEW/hu0dW/Jznab/kZmQwjSFDKGvv68ZNy2iqXZC3ANXsqWGd9fucGkbMtd5Gp/b9/44dw0/NET90LVTP5eo4X3Du9M4tU/T+Doc6/PlsCiX6GV8W77wUTlrDIxZMDKfNfWTeKzAuR9WQM6gKPQWxil6hrNCn+AUfXJg6cemW+YuEDOCNESE5BWAQF4AbBDC/0BgRCeB0gQF8G5rySWQUrTzSEkAPtxM3gU4bS0VkyYrAMFugISs/IECWNYQHQwpgIWVbS0nY5WDs6XEzc1gkAYQOEggICqWMljWnI16VwN8lnpCjkrJyCz1pWlKTw287FDWZ+HPaK6m9Rsowe9on/rzuW6G9fvtKiipukZ4/wU=);fillColor=none;fontSize=30;strokeColor=#069968;" vertex="1" parent="1">
          <mxGeometry x="258.5714365641276" y="324.428586324056" width="8.666697184244791" height="12.19049072265625" as="geometry" />
        </mxCell>
        <mxCell id="JT7VKMC9h3Lh3f7lyLex-46" value="" style="shape=stencil(fZPZboNADEW/htersT3rc5r+R6SQgkpDREiXv++gqVpMxbwZcw9e8G3kcO9Ot7Zhc5+n8bX96M9z18hTw9xfu3bq5xw1cmzkcBmn9mUaH9dzeb6dFuUSvY3vyxc+C0fGwJgFY/NVUr+J5wIM/XUFJA8XlV7gw74+BpDWk4WP+0DIBbwC2IOpAjCIdUcESvuAFwTdkjWQygzOIpICXH1J1sMGDSRQpYJEkFWAD7BSAQhWtxQE0e0D7JD0WkOCq2wp30EUBURBqlQgD3EaiDCVoYm3p5EIXDmNCK8LJAtjK/8NpCfIx5sqet5eXsoVeV//zzorN/0AOfiz3qUfhuLc9futVXOq2FyO3w==);fillColor=none;fontSize=30;strokeColor=#069968;" vertex="1" parent="1">
          <mxGeometry x="261.3333485921224" y="328.8095372517904" width="7.428568522135417" height="10.380961100260416" as="geometry" />
        </mxCell>
        <mxCell id="JT7VKMC9h3Lh3f7lyLex-47" value="" style="shape=stencil(fZTdcoIwEIWfhtszyW5+r619D2fEypSKg9qft28YimVR9i6E8yU5m5OteHM57s51ReZy7bv3+qvZX48Vv1REzelY9821jCreVrw5dH391ne30378Pu8G5TD66D6HFb5HzhoDYwaMzM84dZ94HYG2Oc2AHJGT0FtwVvQES0IfYdK6Pjk4qbceMa4DMcN7AQwOvAJY+CyBCHbrQGAEJwD2sGEd8B5B1sgRsuLBJTgJeANSdnAWIUogqFUqJyYWQCCQYprN0kMI055PAQpIsqzRgK0CuOkAd4DhlCOVe03SQyzRULJkE6z0EBOCEg3rpiJOQLIgDXhId2IkBchwiw3KvZGSPaTF+iXuimUHI2ta3h8rQSpvQa6f/VTkp/qHbjFrIH9AGfx3m0PTtmOzmv9fdqcyNXY23v4C);fillColor=none;fontSize=30;strokeColor=#069968;" vertex="1" parent="1">
          <mxGeometry x="263.8095245361328" y="332.428586324056" width="6.285725911458333" height="9.142862955729166" as="geometry" />
        </mxCell>
        <mxCell id="JT7VKMC9h3Lh3f7lyLex-48" value="" style="shape=stencil(fZPbbsMgDIafhttfYHO87rr3qNR0iZYlVZru8PYjYtriTnBnzP9hG9uKD7f+dO0U6du6zK/dx3Bee8VPimiY+m4Z1mwpPio+XOale1nm+3Qu5+tpU27W2/y+vfBZOKM1tN4w0l/F9et4LsA4TDsgRVgj9AHR1vUxwgWhzwFcqgMhwDkBsEHiBkDwJAGP4OuAt4hRANaDqQ44hyRTch7k6kB+z7IAPCOFOsC5aNmFoEGNlPKfPPxS8DCNvpGDlxGiadZgErSMED10ow+GEGSElGtopBRgrNRbmEbN/yZ1N7w/QDb+Jv0yjGNZlP3942ZkV9kqPn4D);fillColor=none;fontSize=30;strokeColor=#069968;" vertex="1" parent="1">
          <mxGeometry x="265.90476989746094" y="336.428586324056" width="4.000030517578125" height="6.4761962890625" as="geometry" />
        </mxCell>
        <mxCell id="JT7VKMC9h3Lh3f7lyLex-50" value="" style="shape=stencil(fZRJbsMwDEVPoy0hipq4TtN7BIhTG3XjwHE63L4y1LhmAnOn4T/pU/qgod21PVwa4+x1Gof35qs7Tq2hF+Ncd26bsZvKyNDe0O40jM3bONzOxzq/HGblPPoYPucTviuH1oK1M+bsT11aFl4r0HfnFcAektQHSHlbnyNQFHokINoGUgaWFxRHpNyQArgsAQ+YtoGYASVAqFqKFhxJgNVHCgToBOADRMWSj5ClpeDUGrwFRglk1RIFCBKIBFkp2vF9ewFYteSe/iERBMWSK68uLaWk/gOmx2hkq96AAawMX9aLRgSWRZf8ah/H92guetbTDcRCz6ieH8DLiplUPYGV/jmqsUBAL/V6jJ66xaqB/AFl8N9tTl3f12a13n/sTmWpdjba/wI=);fillColor=none;fontSize=30;strokeColor=#069968;" vertex="1" parent="1">
          <mxGeometry x="240.1904805501302" y="316.428586324056" width="8.380966186523438" height="14.285725911458334" as="geometry" />
        </mxCell>
        <mxCell id="JT7VKMC9h3Lh3f7lyLex-52" value="" style="shape=stencil(fZTdboMwDIWfhtsjxyY/vu6296hUuqJ1paLd39sPxGB1VXwXkvM5tk9wJZvLYXtuKqbLte/emq92dz1U8lQxt6dD07fXYVXJcyWbfdc3r333cdpN3+ftqBxX793nGOF74gIRiEaM6WfaWjZeJuDYnm4AVcRk9AHi6SOijZ/Asq4vilxsfPGBhKgWSFAPCAhiABaEuA7kGsUCQghpHUgZMVogo9QOQGDb1Hpom1NDZKjtUhQQrwNDvGxtiIrk3CAKyta3ODv/GBhSskVnQnFS4jx3fQHi7P1jgOcSF0ChTkohI1ugiFtDqMG1BRJqJ6UQQPbxlTLf+fjxIduuKiF7TwnJVqCMFByfUazNWkM81+byFn30TQMHq8/uv0NQ2x8tYFd/N41uBtQfMCz+p9m+PR6nYXh7fj/9hq1pcsrzLw==);fillColor=none;fontSize=30;strokeColor=#069968;" vertex="1" parent="1">
          <mxGeometry x="230.57144165039062" y="303.8571548461914" width="14.380945841471354" height="24.476206461588543" as="geometry" />
        </mxCell>
        <mxCell id="JT7VKMC9h3Lh3f7lyLex-76" value="" style="shape=stencil(fZTbbsIwDIafpre/kjhx3GvG3gOJMqoxigrs8PZL1XWru+K7xPm/+ChXtLked5emCu5667vX5qPd344VPVUhtOdj07e3cqpoW9Hm0PXNS9/dz/vxftkNyuH01r0PP3yOnHcOzg1YcF+j6dfwPAKn9jwDakFdK32AT4aeUGelF/j8WC+M4W2m94wcDSAgeh2QQ6THQGa4BZDNFFiWKVCcfK4DHiwKiMViJJ0isvYQBcEIqTyzrlL5wiprJFDUQA1vlJWKB91nLl8YSQ810SFxBltAaZOevOxBRg6BkXTjcjJntYxm1DlkmSyrgBeIrpL4adzXgRKA7rQkRDEAj8QaKCFZ472sau0R2BglcNJ6ggSjRpCFniePq3qHvNALyKjQv/Uy2zg/QDn8radDezqN223+vlxnxTSuQtp+Aw==);fillColor=none;fontSize=30;strokeColor=#FF0000;" vertex="1" parent="1">
          <mxGeometry x="386.95237731933594" y="274.90475718180335" width="18.952382405598957" height="17.71429443359375" as="geometry" />
        </mxCell>
        <mxCell id="JT7VKMC9h3Lh3f7lyLex-77" value="" style="shape=stencil(hVbLctswDPwaXTEkQRLgOU3/IzOxY01dO+O4bfL3gUaRYtD1+kZRWILgLh4DP7ztnl43Qwpv59Px1+bf+HzeDfxjSGk87Dan8WyrgR8HftgeT5uX0/HP4Xn+fn2aLKfV7+Pf6YT3GRdDoBAmWAof89a68XMG7MfDPUArtwFNqVZnz8vG/+0rRXH2lUSBfaYSnb1SAQG0SJqdfYwk8TZAlbJ3EAtlBoBM7F8oNuhBGqk6gL1RAx6k9B4s6JgBIFyRkIgBC7VS8EFzxYDYe8gmFLkNKELcPICpIAD3ROcKnzU3askDGiTOziteeiVRQh6YuANkfKVAuQMIJI6FavGABuXNhYLnwZhBWjIhiNdSzfhKgUrnoVJqtwGmTfXEVYXPmmT5vQJwAqVCzQMkYg+5D1oSlMZUtNgDGF/JzvM5LRnykCJlr1apOIZA7KUhAmOwKhS7GJQEEBeFmk9RDZDpaAnp5a1WFoCWpkrqeVCG4oumzQ6QsYfU11atuMFdFTIVyEO0nPYNRe90oL546532sOhmsW8BKmmtiqs9rmJlEcFqz/D+mdTff2rBqCSRdufj/mkK8IlgIwHMzaUxrfaCVUrVK8JGFNSprJSk3l5AK7Re271/g/e5GqguZqwvgC2+J7jtuN/PA+Dl/37is615WuTHTw==);fillColor=none;fontSize=30;strokeColor=#FF0000;" vertex="1" parent="1">
          <mxGeometry x="381.1428680419922" y="272.61903635660804" width="31.238108317057293" height="33.3333485921224" as="geometry" />
        </mxCell>
        <mxCell id="JT7VKMC9h3Lh3f7lyLex-78" value="" style="shape=stencil(jVbZbhsxDPyafSVEUhKp5xz/ESBOvahjB47T4+9LY6GtqXqJvmm1MzqGQ1ITP3zuXz52E6XPy/n0ffdzfr3sJ36ciObjfneeLzaa+Gnih7fTefftfPo6vi7fHy9X5HX0fvpxXeHXwsOUIKUrjdLvZWqdeF4Ih/l4Q2gNlAe8RHgBRodn0AjPUJrDC9Qa4HHENxDcxqsCeTwyUAkIGdgLhAIU7CCmEDkC2Rk5IBQg8YQCGtxZTHL1mibAvE2odbwD5/DSFaFlT1Bg2iYUgeKPlAlIAwJ3TVZCgSbbhGxxHQgNSqBSroD+SIVAW0AgkOIJNcwFbt36K0GhBbJyheYJJnQUaQsTVk/IUKIdEMTbuwqkwHyWLjzs0CAHR7J8TJ4g2O14n5BBfRzEbhXISjQmkNTQfFaCqnerKJQgH9B++x3UlghkxQrZp6iaWQKVMI9lxuqIBvZGSxdvbzWzBLJiGnPaSlsL7K2Q/QYt9SS/XwOgDoWVegbez2jAYX3TIPL2GOVWehjvR7kLvuIraBSznuwrXqAFdRt7CV3xGnaqNFY8a4050N/ixSM+6pypd5n/xg+N/Ka3bxH+uYAEgqax85tA7Bxqg78Pjbf5cFjeKbf/x4eJTS2PGn76Aw==);fillColor=none;fontSize=30;strokeColor=#FF0000;" vertex="1" parent="1">
          <mxGeometry x="380.0634969075521" y="271.66665395100915" width="38.22224426269531" height="45.11111958821615" as="geometry" />
        </mxCell>
        <mxCell id="JT7VKMC9h3Lh3f7lyLex-79" value="" style="shape=stencil(hVbLctswDPwaXTEkAZLgOU3/IzNxak9dO+M4ffx9oVHoGpSyvcnyLoUFFgAnfnjbP73uphTerpfz992vw/N1P/GXKaXDab+7HK72NPHjxA8v58vu2+X8fnpefr8+zcj56cf553zC74UXQ6AQZloKf5ZXtxdfF8LxcLojtEYpO3wkzgBfSKrDCzUB+ES5OHwjZoAPJOzjiZT1c4IW0ugJmQqISC0ir8BSlIDkqhSaJ5jmCAi8+kLrqjYJxYrgNTB3VduETNFniStpBYRIyRMkUgFfyJWKr5tkCgkQhMRnSSo1RLAAvFNzoAzqII2CDyknWAcpVNQTTAPIkshobkvDxze3CYk4eYJSa4AQiMURSiAFbmUl9qJL6qq2CYXYiy4CG4jtb2++YkeALHHq/XUjKCVQaTaJ3nw1wLRauwSvoUZSRKijaOvBAkJKmarXUHMv5TZBKPo5WQscfCmRDATtht8mhN7BnaChj4VNQrSp4UVrpArGTKxUfccpE4OQYqHoraFCCrIUzUu+0jae0TqJPK4rtSCBW20bDObTRhFYI4axDvOKAWm1rA4LC09KHUexrbwC2qdS9GVuti6AkVb93AS2Zx6LbPgG8WP8uRdxe4SN48KuBAFUTMYKG76A83ncI81mMLAQj9vZ8BnNilV+KsxP6i1yw2uf4duG6zvpDl9RG5MM55uhQY/ZmGgjHuUzjP65uyN+QhgboFEDBQjjDjQ8WjirG+p/BQQZ8YJmysqgtV9+PvD28O8C/XI4Hpf79/3/44XbXi2XdX78Cw==);fillColor=none;fontSize=30;strokeColor=#FF0000;" vertex="1" parent="1">
          <mxGeometry x="382.31746249728735" y="271.2857030232748" width="42.063513861762125" height="51.619059244791664" as="geometry" />
        </mxCell>
        <mxCell id="JT7VKMC9h3Lh3f7lyLex-84" value="" style="shape=stencil(fZTbcsJACIafZm//WWCP19a+hzPGmqk1TkxPb99k0lixyh3Z8C38wOJkdd5vTo1jfx767rX5bLfD3smTY26P+6Zvh9Fysnay2nV989J378ft/H3aTJ6T9dZ9TDd8zRx5D+8njP33fHQ5eJ6BQ3u8AmpBispfQGT4M4iVP3mk8hgogqgDUEUyIuQKHxTAARQNgBCrljAmaWhOAk4KCLaGGG41hLpccRcICaI1xAw2UpKxDRpIAcGokhCSFp09spESJ3jSQAJnA/CoukqFQOExQGnJ+AJEkBGBGFHPahnLYAAVISv/SghsNBpFz2qVpcz324ai86nRrimiaP+MYswR3bagVnOy/73lq+f9C4zG3y7YtYfDvEqu/9/ujvFo3juy/gE=);fillColor=none;fontSize=30;strokeColor=#FF0000;" vertex="1" parent="1">
          <mxGeometry x="407.42856343587243" y="277.1904729207357" width="18.857177734375" height="22.47619120279948" as="geometry" />
        </mxCell>
        <mxCell id="JT7VKMC9h3Lh3f7lyLex-85" value="" style="shape=stencil(jZTdbsMgDIWfJrdHgAHDdde9R6Wma7SuqdJ2P28/ooiszhZrd4ScD7CP7YY21+Pu0jbOXG9D/9p+dPvbsaGnxrnufGyH7lZWDW0b2hz6oX0Z+vt5P31fdqNyXL317+MJnxNnjYExI+bM17Q1bzxPwKk7PwA5I3qht4is6D2S1DPGrzV9YrCV5wcYrwAEXjwowys3cHlAEoCLIA0wCFEARPBxHYiEIG/wBkzrQIjIWQIMnxXA1KRXIBBSWge8R3QSKEaGdYAyrPQhliOUoMnDL4CEpFQSGZDMEjtEJYZik5M3cERUslRKM0sgGXglaMs1iTNAyErQ1i9jSMVKpR2sXdZSyiDlSRlOGp1LvylZZVjpcyZEq1QSnOyeHECazbUuZ32slfW3B7UXZz2reltfO+sTSEloaazF+Xr3/xp3DxPwf0C5gIVhZfEzXg/d6TRN58f/y3FctqZRTttv);fillColor=none;fontSize=30;strokeColor=#FF0000;" vertex="1" parent="1">
          <mxGeometry x="408.57142639160156" y="284.9999872843424" width="17.714314778645832" height="19.000015258789062" as="geometry" />
        </mxCell>
        <mxCell id="JT7VKMC9h3Lh3f7lyLex-86" value="" style="shape=stencil(fZTLcsIwDEW/Jts7lmX5sab0P5ghlEwpYYC+/r7OBFKUNto5zj2WJV2r4dVlvzm1jXeX67l/bT+77XXf8FPjfXfct+fuWlcNrxte7fpz+3Lu34/b8fu0GZTD6q3/GE74GjlyDs4NmHff49a08TwCh+74AJQCZqUn+GDoIygrvcB5Q++QSZ9PiGUZyAkSNSDwbAAeEhRQU3CyDKSIpCP4Keb/gAOLAjhAjCtFhiQFBILQMiAJpK8UsllWqV3SgDCSAQRB1L6QbAMOohtdswpG41iQdYSYkCyAELQ1EiEZ3qtt4qIBARk5eEbWfUgZZEX40+lcC52XAYrI+vnkADbeG/Hd/ROQ4A1rkJuXNRdEw941Q51zIWTD3YKk+1xq1YwaVZ/Nzq8nGBn7edOKnbC7R5/0+f5eF/SzgVdH2u2GC3rR+oeZeQPq4nfA7rrDYZzPj//nA7lujcOc1z8=);fillColor=none;fontSize=30;strokeColor=#FF0000;" vertex="1" parent="1">
          <mxGeometry x="408.09524027506507" y="289.19046783447266" width="18.952402750651043" height="20.4761962890625" as="geometry" />
        </mxCell>
        <mxCell id="JT7VKMC9h3Lh3f7lyLex-87" value="" style="shape=stencil(lZXdbsIwDIWfprdWEid2cs3YeyBRRjVGEbC/t5+rrgyn1NLuQvGX2Dk+ToOry35zapvgLtdz/9p+dtvrvsGnJoTuuG/P3VVWDa4bXO36c/ty7t+P2/H3aTNEDqu3/mPY4WvkvHPg3IAF9z1+un14HoFDd7wDSoaYVLyHgkZ8BM4qniAUI16O93p/DzEvA5kBdQE+mifkAClooECkZYAZXFRASOCSAXhAVAA6YAOgBKRTQoIUDcBBIAVEW4aUwOuUIps6JzlBA8kDGbcUpYaiATJPkIxJK50KZKMGZGBdNKEpHEbAqvcIiA3AQdY1UDGBwLVwLN1lAZKSroGTDXjwur05Qzb84Hm6xAnI0hqGH8QulXA5TtfwGAj1yBAPkpFSgaRrFpMHo2ZxtPZbCRANN8x6W4bOryyPZa7NU8gcMX4y7y1eOtHYX8yu70eGZjb6dDaCSwE2BJjF303xBaBgfYBdsOf/JBRmApdphwWBq9lSZHio+SiLvydr1x0O44t3/3/9xMmn8XnE9Q8=);fillColor=none;fontSize=30;strokeColor=#FF0000;" vertex="1" parent="1">
          <mxGeometry x="407.5714340209961" y="293.57141876220703" width="20.428560892740887" height="23.00000762939453" as="geometry" />
        </mxCell>
        <mxCell id="JT7VKMC9h3Lh3f7lyLex-88" value="" style="shape=stencil(fZXbbsIwDIafpre/Ets5XbPtPZAooxqjqLDT2y9VNYZb6rs08dfY/m2n4c3lsD23DbnLdejf2q9udz00/NQQdadDO3TXumr4ueHNvh/a16H/OO2m7/N2tBxX7/3n+IfvifPOwbkRI/czbd02Xibg2J3ugFKQvLL3cGTYR4So7AMcG/YelPT/HSSsAzkvHGI4CxAk1kBCNEJINeSsACKkaAACXzSQQWUdiBmsAWYUQ4VIYJ0lLmAjrSEiaUAEMRmAh+i6kJvyDwGJ8DqtQRCMG8QhzyqjgGQd4ICilY5sCscecQbYSlM91jEkD2+4RALRN1TtORvAIq0pQQzhfIbo0sjur7oeAwGiqzWzmVZPCDMgmMVXG5JIA9lUOiGJsq9NbnXoIoLCCJbOCEHbB1NmjzLzJ5kq1xqY+WO3swPrwq5D09J4MYLvpvKKQy7bF9TF/8jfd8fj9GLcn8+fiLo1PS/8/As=);fillColor=none;fontSize=30;strokeColor=#FF0000;" vertex="1" parent="1">
          <mxGeometry x="406.4285888671875" y="298.9047520955404" width="22.142837524414062" height="25.00001271565755" as="geometry" />
        </mxCell>
        <mxCell id="JT7VKMC9h3Lh3f7lyLex-89" value="" style="shape=stencil(fVbLbhsxDPyavQ4kkpKoc5r+R4A49aKuHThum/x9udiua6oOb/J6RuJrRpr44W3/9LqbKL1dzqfvu9/z82U/8ZeJaD7ud+f5YquJHyd+eDmdd9/Op5/H5/X369OCXFY/Tr+WHd5XXk4JKS00Sh/rp+uHryvhMB9vCF1R2eEzCgX4itQcXkAS4AlaHb6haoBPaOrwHVo+x2tD6j5+Rg8SUELxB2RFC05oFrDPgHjL6T6BUMUTOjgg1AYhR2AJQ6qE7JOWBAoIpYF90lKQW0AgNN/mEs+RKMhXqUiYtAjyQFAwBwRL0YdkZUgBges2aVdCAQezygzx2qkWUlAltpC8eFoG588JVNGLJ1gZgsYto+aTbhUa9MHkS9kT+qbYuwSbfvUhaUYKGpctB3+CUqiHXMZOq6BEBB71oOY6gWnkjO71YLYgQR+yucwQkqJENgb1ktYO6YHLjDUyXyvBrOroYj1vir3vMaOezWcp2L+OHmb4HsRf0H2+nUNHKqMQuqBGdoEy1KdAgv3t9KE+NRQaj7eU4XugAoIM9WnQ4BbJo8XbPSpBv9K22xXfw2vzv1v85mL/S7DFv1fAy3w4rI+I2//HV4N9Wl8c/PgH);fillColor=none;fontSize=30;strokeColor=#FF0000;" vertex="1" parent="1">
          <mxGeometry x="407.0476430257162" y="305.19046783447266" width="23.23809814453125" height="25.142862955729168" as="geometry" />
        </mxCell>
        <mxCell id="JT7VKMC9h3Lh3f7lyLex-90" value="" style="shape=stencil(fZXJcsIwDIafJleNLXnTmbbvwQyhZEoJE+j29lUmJEUu0c04/2e0q6HN5bA9tw26y3Xo39qvbnc9NPTUIHanQzt0Vzk19NzQZt8P7evQf5x20+/zdlSOp/f+c3zhe+K8c+DciKH7ma6Wi5cJOHanO4AZMlX6kA19geyVHiF4Q58gBqWPQNb7ATgpfQa09Aio3/fiQFoHSoGkHfAByALkc9EAgzOAzJC0SUiQDB9ygKxzhmIkrQOJgaICiCAXA6A6ayQ+GGmLZXZxBgIBGz5EhIQaKFDiOhAyRB3WSGZlBKzDGvNcWw8BynVYk4diREmCeCu1BYhmWJEhaJPGzBiJk+JnnYcs7WMBOBuwAHH+z4eA1GbdPwU8G0CufSjOTJyPgDrThcAb/eAlr9rpYs8A74FYA9keMnUpFTaHRq5jxG6+edw+EHW7ydSxZoy4p0PKZBZeAK9n8DgFjRRInVb6BN4Y8ggRaz1bNQFFJ4yXVlrROx1/2RLR8FcmtG5M2UJo2PNvp92tuRsgh7+duO+Ox2ml3n+vd6hcTfuXnn8B);fillColor=none;fontSize=30;strokeColor=#FF0000;" vertex="1" parent="1">
          <mxGeometry x="406.2857106526693" y="310.523801167806" width="23.619049072265625" height="26.857147216796875" as="geometry" />
        </mxCell>
        <mxCell id="JT7VKMC9h3Lh3f7lyLex-91" value="" style="shape=stencil(fVbLbhsxDPyavRISqQd5TtP/CBCnNurageO+/r5cLLQ1mV3e1vKMRJEzpCZ6+ji+vB8mTB/32/X74ffp9X6c6MuEeLocD7fTXb8mep7o6e16O3y7XX9eXpff7y8zcv76cf017/Bn4eWUIKWZhunvsrQufF0I59PlgSAM0h0eI3yFLgZPY2EbnyFXg9cD8z6eGSgbfM7QMCAQMFpCBeF9QtcAbER6Ze4BgYBsirABBSe0DtJsjjLU4ISG0FxSG9SyT6gdmj2hZMAgrZUg2SyVCiWoWxFfN13BICTdj2xIFaHXgICQyBIqcHAHEiB7h6pioYDQfFpbghYRClR7wlyZKCT0dWgFMFCrCiEVS6jQAmmgjDKthA45uIP6K1u1NoYSERqIrUMT4KAFYB3aHISuJg/8gGXYZSVgWAdEEHtp9SAHWkL1lyNUwOgE7XIuJHVcQMjsPd17KO/cgd0JHPalrGq1aeW4FWufqzYkzkBRSMUbiBFKoNZMw/IrgUaQ2wT03ZsL9MBA2tyLu4MOmChL6mA737hBjwbWsNeK76GltUhufw6FwcONK15CfB9mHHhJY7xszwboDp+HdLc7vdepYKiiCtk6RyjEFyi2wqIdL4ifPuF1UAQSUkXa/EsbO2wLAoqtr/Sh8k18gu7wHM615AWq+KgVJd8cRYYndvDuvaZ4CfL/KZ6HJ99OQt080AOamfz68f89+XY6n5fn6OP//v2pS8vblZ7/AQ==);fillColor=none;fontSize=30;strokeColor=#FF0000;" vertex="1" parent="1">
          <mxGeometry x="400.6666717529297" y="318.9047520955404" width="30.761891682942707" height="31.142868041992188" as="geometry" />
        </mxCell>
        <mxCell id="JT7VKMC9h3Lh3f7lyLex-92" value="" style="shape=stencil(fZXbbsIwDIafpre/EjuOk2u2vQcSbFRjgBg7vf2Cqna4o74LxV/iw2+749X7bn3adhTeL+fj6/ar31x2HT90RP1htz33l3bq+LHj1fPxvH05Hz8Om+H3aX21vJ7ejp/XG74HLoaAEK4YhZ/h0/ThaQD2/eEGqAVajH0EsWMvYHt/QqnL9qWisr0/QIoDKDhZgJEcjwqhzIACSsuAKjQagBg5OgBB1AIVLMtAVpAYgAXRyVImROtSCmPe7gKiELKA+ADP6yYBKS8DqYWYLZCQnReaA8VmSQrYAwjZvpAjsi4DXEcHJiChOoXjDK0W0FHu9wFGsYXTAPZcamWydVBGdKRBOrbLBGQEcoAEtWnVgurE0BpYbFpLHKO6C7R2EZvW4lc6CsRqqTUtOTFEgtq0trEgTovGKesjUOPYg/eHAMjGXNnVXobYfqttjDlKajqzAVS/3XgU8mSviI49ga0q2lz2ZBTBZW7vjeE2c2f++wX4t0VuFssCkPL8AU9DrcBxbq9OwAHKc3tyxtc/xbUCJFPgdvjbos/9fj8s4dv/51u3fRo2Nj/+Ag==);fillColor=none;fontSize=30;strokeColor=#FF0000;" vertex="1" parent="1">
          <mxGeometry x="405.0952377319336" y="325.9523696899414" width="25.95240529378255" height="25.714298248291016" as="geometry" />
        </mxCell>
        <mxCell id="JT7VKMC9h3Lh3f7lyLex-94" value="" style="shape=stencil(fZTLcoMwDEW/hu0d2/JL6zT9j8yENExpyJCkj7+vGQpFtGhnzD2+kiyrot3tfLjWlTO3e9+91h/N8X6u6Klyrrmc6765l1VF+4p2p66vX/rucTmO39fDoBxWb937cMLnyFljYMyAOfM1bs0bzyPQNpcFwAwfhN6CoqIPSF7oIwIp+mK/Op9gFIOcYFgCukO24CQA5xDCNpAiLEmA4XgbiIwoHSgiKiFFhyQvwRM4bwMhIMqqBgvrtgGf1yGFhKyU1ZcqWXlvXk2aApy8uGRAdhsYiiiTTiUrDSBkmUPWHWwGy5CynoP1U01mIE3t/j9g4bMAWA8pI8mqskNUDErfyIDYwysZhKkLZn1AVvqCEOXj4fKcvJLwuis4g9K23kzus55BSvx/ptFiQP0AZfE7zU5N247DcPl/Pf3K1jg5af8N);fillColor=none;fontSize=30;strokeColor=#FF0000;" vertex="1" parent="1">
          <mxGeometry x="407.99999491373694" y="331.2857030232748" width="23.23809814453125" height="23.333338419596355" as="geometry" />
        </mxCell>
        <mxCell id="JT7VKMC9h3Lh3f7lyLex-96" value="" style="shape=stencil(hZRNcsMgDIVPw/YNIBCwTtN7ZCZO7akbZxz37/bFQ9Nabkx3sqxP4kkIRbtre7g0yurrNA7PzXt3nFpFD8ra7tw2YzdlS9Fe0e40jM3TOLyej+X7cpgjZ+tleJszfBTOaA2tZ8zqz+L6cTwWoO/OCyBZJCPiIwxvx0cL70X8PwWCQSABkIFL2wAzAkuAbynuAj7ARAE4hqsALiAGAXh/89wFKIGlBnawFQ1kEWRXcxtqR7IMlmMLWXSlgjWIq7kZUNwGTIROEnDgSgXjEFcAI9WALFq2NSZ4VwE0SAIpa6h0KSDJQScC28rNAK/ye/hKjwhGKk4Bzm/H/9m1xfp9A9n43dVT1/dl1Zf/17udXeVdoP0X);fillColor=none;fontSize=30;strokeColor=#FF0000;" vertex="1" parent="1">
          <mxGeometry x="392.95237731933594" y="337.9523696899414" width="8.952402750651041" height="9.333353678385416" as="geometry" />
        </mxCell>
        <mxCell id="JT7VKMC9h3Lh3f7lyLex-100" value="" style="shape=stencil(fZTLcsIwDEW/Jts7fltaU/ofzBBKppQwgb7+vsqkoSgU7WRZx5bsKzVxdd5vTm0T3Pky9K/tZ7e97Jv41ITQHfft0F3EauK6iatdP7QvQ/9+3E7r02aMHK23/mM84WvivHNwbsSC+55cV8fzBBy64w3AhJRVfISLRnxEYhVfUY14KqhexfuCXAwgzNszIBXU9BioGZk0IDX5x0AhuKBLLmCjhswgfUNKIDaAgKJvEA8ZNaQ8J3AFGGwAUVLSQMmIFhBRdUrVwdfHQGC4qoE0H/E/kJfKq9UsOniQBsghGVr1BF4AAZwNQJ5Vi5UygvHTXsSvf5oqstU+S2WwtJuhbnkR3W0sUjG0mkG6e1g+wcjnrjtZus1Q6t20uBkgv4AYf9Nm1x0O07C63V9OJ3FNky2ufwA=);fillColor=none;fontSize=30;strokeColor=#FF0000;" vertex="1" parent="1">
          <mxGeometry x="391.42856343587243" y="332.23808542887366" width="8.190511067708334" height="8.380971272786459" as="geometry" />
        </mxCell>
        <mxCell id="JT7VKMC9h3Lh3f7lyLex-102" value="" style="shape=stencil(fZTbbsMwCIafxrfIgI/XXfcelZou0bKmSrPT28+Rty4kCneE/B8YDDZ8uLenW2PI3qdxeG0+u/PUGn4yRN21bcZuKpbho+HDZRibl3F4v57r9+00K2frbfiYI3xVDq0Fa2eM7Hd1PRzPFei76wLIGSgIPYEjRU/r+BmSok8MGIUeS0YFiAlSlgdicKgACCwBLp6wDwQGK0vmDDHuA96va3YJMO0DLkJMAighnFeATQ0BAd0+wAEQJeAhK13iTYZogXgfoADZScABKxdHm7bGCF4ZvTIITmZI+pHQg5cZkj4aiBDk8KUIVrmH+BfuMdwIpHUVmKXeq9u2Wc7Fvv4Cxfhf7kvX9/VtWP5fPwbFVR8SPv4A);fillColor=none;fontSize=30;strokeColor=#FF0000;" vertex="1" parent="1">
          <mxGeometry x="387.99999491373694" y="326.523801167806" width="8.571451822916666" height="10.476201375325521" as="geometry" />
        </mxCell>
        <mxCell id="JT7VKMC9h3Lh3f7lyLex-103" value="" style="shape=stencil(fZTdbsIwDIWfprdH+Xd8zdh7IFFGNUZRgf28/Vx1ZRhU36WuPyc5PnETV+f95tQ2wZ0vQ//efnXby76JL00I3XHfDt1FVk1cN3G164f2beivx+30fdqMmePqo/8cK3xPnHcOzo1YcD9T6BZ4nYBDd7wDOIKCys8gI79mVF3fR5S6DBAjPwAMSgZQ4FgBIaCWZaAwgt4hSMQ4UgnwSQGxwBtAznCkgBRAxpFSBUUNMJw3AKmXdRsSiJYBOTEXBRSHHA3Az329ARmcl4EgO+g+kENlA5A26UtTRjIAMYLT3hOzeEMlX+Z6M1ADguEl8SZrWWtCNWT1olLVAMEbAKNoVSsjGfkE1k5ij2R0oSBqq8qDdYamT07lhGz56PE5szw/yxVIumVMiJag8+1u+dUcF0/j626i/QGy+B9/u+5wmKbn/f/HcSmhadTG9S8=);fillColor=none;fontSize=30;strokeColor=#FF0000;" vertex="1" parent="1">
          <mxGeometry x="385.90475972493493" y="317.9523696899414" width="13.142862955729166" height="14.476206461588541" as="geometry" />
        </mxCell>
        <mxCell id="JT7VKMC9h3Lh3f7lyLex-104" value="" style="shape=stencil(fVbLchpBDPyavXaNpHlozo7zH64yDlQIuDBO4r+3tjZL0GB0G4buXbXU0mqSh7ft0+tm4vR2Ph1/bv7sns/bSb5NzLvDdnPane00yeMkDy/H0+bH6fh+eF5+vz7NyPn06/h7fsLfhUcpIaWZxuljubpcfF8I+93hitAVrA7PIArwBak4fEHrAZ5QyeE7cr6P1w5lhycCBwK0QrInZHQJCAzxCqiD+D6hNaj4FAlaDQiM7kNiRQmSWhu6T5IIOHhDFSSfJVGk4A3FyuxFZw41FEH2vsgt1JAVvXljEDQiZOjgpBpaNZsRfFpLRwkI0laJK2HOWxCSZNSBUEEaEAh9IMReMvcPdWj2iBIQKtT3c8vIgb05j4VrNayDNTx3T9BV1deEBPb9oAmt3SeQjv1gPcjBECArnNegghpUmmwIePNpRguyNM8IXwct0EA0yTrmLoQGikLi0XyqoTVszulAMC9FWUqjhp5AkYY0zm6bzikgKLSP+ChJNsYGPEMDYzSkAW9lDvB1jfaCN7NHQww06C1rc3zdzjfxV3AQj9zEb54I8HwTv1ki+HhadXyj9Q4JLHTz7b9aB/4R7PB/d3jZ7ffL6nH9/7hr2NWyp8jjJw==);fillColor=none;fontSize=30;strokeColor=#FF0000;" vertex="1" parent="1">
          <mxGeometry x="383.8095245361328" y="308.23808542887366" width="18.476216634114582" height="21.047627766927082" as="geometry" />
        </mxCell>
        <mxCell id="JT7VKMC9h3Lh3f7lyLex-106" value="" style="shape=stencil(fZTLcoMwDEW/hu0dW5IfrNP0PzITUphSyBD6+vuacUtRWrwT8j22rmxR8eHWnq5NReY2T+Nz896d57bih4qoG9pm6uYUVXys+HAZp+ZpGl+Hc/6+nhblEr2Mb8sOH5mzxsCYBSPzmVNr4jEDfTdsgNrDsNILmPb10cMHpbcM5n0gBJBVABGkLgAEQxoIcG4f8ISoLbNHtPuAYzjtQVIX/D4gAi8KcClTMM2pYl1SKpJCATDwTgMRoWA6XZPoE4LAyT5g63sPof7Z4n8g9UR3KTJsCViXV8AhxgJgIPqmY0QsPQ0EbaG2kIJnQfBaL7AFPYGj1qfHWxiGP7O2Gb9vIAW/s3rp+j6P+nb9frZTKv8X+PgF);fillColor=none;fontSize=30;strokeColor=#0000C4;" vertex="1" parent="1">
          <mxGeometry x="427.61904398600257" y="270.90475718180335" width="8.000030517578125" height="10.285710652669271" as="geometry" />
        </mxCell>
        <mxCell id="JT7VKMC9h3Lh3f7lyLex-111" value="" style="shape=stencil(fZTbboMwDIafhttfjp3EyXXXvUel0hWtKxVlp7cfCGmbi/BdSP4Pn93I7n4+3NqG6T4O/Wv72R3HcyNPDXN3PbdDN06nRvaN7E790L4M/fv1uHzfDrNyPr31H/MfvhYuEIFoxpi+l6vfi+cFuHRXHwhg3QZqQixGXxDStr4oyOqDInsAQ6oBmMF1G9D0GIEQ2LGQM2q2QEGK20AqoGiAqK5LsUKSAdKUtuAAAWJjyIzI24AIarCAXwdexaDiusQCtllSRXIshIqktjMIxclSyCBb6SLQ7ACy6r2M6AFhZaEgOy4VqC1DJWQnSYpgQ66MXJxOQhSrj+60rQKexq86+lUbVYU6+vXw0+O+mA5/2+bUXS7Lsvr//ridpqtls8n+Bw==);fillColor=none;fontSize=30;strokeColor=#0000C4;" vertex="1" parent="1">
          <mxGeometry x="428.2857208251953" y="272.9999872843424" width="10.952372233072916" height="14.952392578125" as="geometry" />
        </mxCell>
        <mxCell id="JT7VKMC9h3Lh3f7lyLex-112" value="" style="shape=stencil(fZXdbsIwDIWfpreWE8dJfM3YeyBRRjVGUWF/b79UVRlOqe/S1F8THx+7DW2ux92lbTxeb0P/3n53+9uxoZfG++58bIfuVlYNbRvaHPqhfRv6z/N+er7sxshx9dF/jV/4mTiHCIgj5vF32rpvvE7AqTs/AJKBkop3kMWIDxBJxUeQvB6fZfF9DxIMIAKLBiK4aAAOmBVQUkhGyolBnAYSJGcACF7nQATBECkuRCIBpHWAi0q6aoFAjBM4AOsrhQwhGcDCF+xnoZ8CgSHoHDjOpXwOuLlMd0AgGSdQAq+vFAnIUKmo7ivv2ebzUheulJK9AXBdhxTAGUkXq2HQQALhdcAlQH2l4t9ouNVRXekcZv8+B7DuuJwBjTokiF7FC0I0VOXZyvd4Mhu09LvWVIq1rIzr+0sya4B1O5eZZo28RSdIsYkh6CL+YciuJOB9fQAqgcrif4IfutNp+gE8vq8nftma/ha0/QM=);fillColor=none;fontSize=30;strokeColor=#0000C4;" vertex="1" parent="1">
          <mxGeometry x="428.3809509277344" y="274.90475718180335" width="15.619043986002604" height="20.1904780069987" as="geometry" />
        </mxCell>
        <mxCell id="JT7VKMC9h3Lh3f7lyLex-113" value="" style="shape=stencil(fVXLcsIwDPyaXHdsyS+dafsfnSmUTCkwlL7+vmJSAkpAt2C0tlZarTpefKyf98uOwsfxsHtbfvcvx3XHDx1Rv10vD/1Rvzp+7Hix2h2Wr4fd5/Zl+L1/PkWevt53X6cbfgZcDAEhnGAUfoej8eBpAGz6rQ+ICPE+QCqYTHwCixPPqNXEN5TkxEekZvOJiPk+oFXUaAEZyWHQGJQMQGv0z+kmoDYES4Hy+c3bAEJhA2Dl4HShzIrKBbk5gIhmU0oRxQHkgjRpW0F1+pa1D1YXepId0pf7RkCGOI1LNCWdBeL0gRuiLWthFCclTsiWQyn+C6P2R4CgORyoQmxK2nupDiCDrLxrdjkQTeen6ptOp1XMlO3ABXeAopa1WIB2hh1AAdmyNvUAh0NMs5TGK24DCGS1pFMuro0hTVxGQE6nG5qlIAHVsaWKaLUqdOZ0e3yQLGP1wezogiFWeJJci1GHmdyf0Zz8Z9MsxVVRQLaaEDVBp56zLaLxUrz4aD1YxBXp/H5x/S5Mx+xq0d0p6MS99IFgEtKPy9pd9ZvNsLWv/5+uaT0aVjw//gE=);fillColor=none;fontSize=30;strokeColor=#0000C4;" vertex="1" parent="1">
          <mxGeometry x="430.19047800699866" y="276.61903635660804" width="17.04761505126953" height="25.190480550130207" as="geometry" />
        </mxCell>
        <mxCell id="JT7VKMC9h3Lh3f7lyLex-114" value="" style="shape=stencil(hZXLcsIwDEW/Jts7tuSX1pT+BzNAyZQSJtDX39eZNBQFUHfG6NiS7lXc8OK0Wx03DbnTue9eN5/t+rxr+Kkhag+7Td+e66rhZcOLbddvXvru/bAefx9XQ+Sweus+hhO+Rs47B+cGjNz3uHXZeB6BfXu4AqQgior3KN6IZ5So4jN8fBxfChLr8wlSDCAiFQ0keDIABwoKqCUkI6Uc4GdAgUuPgZSRNMABlA2gJpAVEGqS8hiIEXEGRIhRdLyROXp4I6V6Hmkd6p2ZDaCe5zUgSIYzOKPolBLDWUBA0UonOyUmcNJAgTeEI4HotmZbh2qEX6tdgHqnkRIlkE6puosNHYinJl6ANPXtPuDh9IBmARvW8AWsdSgeEgygmk8XXQKS0VbPc/OVDDZm2teu66LFwRtFZwRtViEko+aArHWWCGd8Amgarkv8PyLMbSF5uvFuvJuPgohp1JtpvvqO3+8oSppf4JRP6+Lvkdi2+/34xlz/P39U6tb4IPHyBw==);fillColor=none;fontSize=30;strokeColor=#0000C4;" vertex="1" parent="1">
          <mxGeometry x="432.7143096923828" y="281.19046783447266" width="17.952351888020832" height="24.523813883463543" as="geometry" />
        </mxCell>
        <mxCell id="JT7VKMC9h3Lh3f7lyLex-115" value="" style="shape=stencil(jVXLbhsxDPyavQ4kUi+e0+Q/DMSpF3XtwHHa5O9DZyHXlG2iN+2KI86I5Gjih7fN6nU9UXg7Hva/1n/n5+Nm4h8T0bzbrA/zUVcTP0788LI/rH8e9u+75+X7dXWKPK1+7/+cTvhYcCKI+YSi8Ln8CQjh+8fTEr+ddxfxMZz3/w9wnSAiVSc+oYmJL0jixBM4mXgBOee3hkqWD4OLA0h9+wxoCHwfUGUEkGZwKFVGsZRUA7f7gFLRqgFwRnA0FEKxlFIAORqySrRVSAnZ0ZAZjS2g9Zw3AUn6eR2QCTU7gIxkM+SCHB1AhEQLEIgjmhvEtpLeW3MocQE1C8jIXgbujM+Ahuho4IBiKdXQa38TQHWstHZXdTLQ1bxVHTincESItg7V79Z45QBNZ9bzmIJoW6P57a0TnKwnNZ0QR3QMEHtLEjrJ2yYwmobaTnIkFFRLSG2NkjM+o6lK7vN0uy/GPpICcVxS2doSSHXPj/36zvEN2dEbxmFW2/fjB70X78odwDD8msAK0MW/R+5l3m6XN/Jyf3wU9dfyoPLjFw==);fillColor=none;fontSize=30;strokeColor=#0000C4;" vertex="1" parent="1">
          <mxGeometry x="433.04762268066406" y="281.19046783447266" width="22.38095431857634" height="28.523818969726562" as="geometry" />
        </mxCell>
        <mxCell id="JT7VKMC9h3Lh3f7lyLex-116" value="" style="shape=stencil(fZXdchoxDIWfZm/PWJb/dJ2k78FMSNkpgQyhbfL2FbPjLTKgO2POZ+2xfjzx0+du87GdYvg8n46/tn/n1/Nu4ucpxvmw257ms64mfpn46e142v48HX8fXpffH5uL8rJ6P/65nPC1cBQCQrhgMXwvW+vGjwXYz4crQCqKGH1EFEfPiMXoK9g5v1XEZvTEkOoACYEsoBHaY6A28OCAwdEBIihaQCD5MVAyxHrm4kbIep71kCIyOUDql74CDeQASZCshxwh7AAJzeYhV1ByAALZQioBtTwGWCspWUAz7UTghGI9lILimGZCHT5JenXdBTSvZPNQCc3xEAuSjVAT2CkNLbUyAMU1HQnMFhA3AgmCLb5GyI5pbZdhAjT9SC9C6tW/AhnFqSXt4OFatcuTY5qod/AKqCtnCAhaNXoJvVbuDw2kQa95dvRldKxjjbyG7vZWfUJypiT3Xlz1uTu6XxWow/k6Nr2UoQ5+m9sIARJGvTeE9bZtvkTcYXHz6Kje64LQT1tnfPCfKbpJgKbcXJAu/j+Kb/N+v7yp1/+Pj6huLQ8wv/wD);fillColor=none;fontSize=30;strokeColor=#0000C4;" vertex="1" parent="1">
          <mxGeometry x="435.6825442843967" y="286.3333206176758" width="22.031765407986086" height="27.6666742960612" as="geometry" />
        </mxCell>
        <mxCell id="JT7VKMC9h3Lh3f7lyLex-117" value="" style="shape=stencil(jZXbbsIwDIafpre/Ejtxkusd3gNpbFRjgICd3n6uqm64FGt3aeovPtsd3502q8O6o3A6H/ev68/+6bzp+L4j6neb9bE/66njh47vnvfH9ctx/757Gr8Pq0FyOL3tP4YXvkYuhoAQBozC93j1e/E4Att+dwG0Cs5GnhDYkWfUauQFzXm/NsRk5COBiwMIcrFAmlQuA4TIFmgojkmlIFgNlF2fS0S1MeWA2G4DIijWaVYN0QE06M0CDSK3gVyQrYbEk5HLACNFC+gTdBtIDdmalCMoOUBGs2HNCeJpIMgMKCj5NjDExAISUJyw8lUtCU9PLAMapRkgEKc0tBBoBmjxOYkb2kUMUMhNHGleZ0D2NYTp9y9QkZ2wxoJqfagR0YlS1GK2M6Cy26La8tUWn3Y5eSYFJNvTtSI5xVenmTLJtzBlcrnhINagRkherc6T0BLYSQKD7MRoguA5fPW+dqcTUc0xWfkKceVlJq9z2am6qy1ysVj+B6iC5iSM5jNYHbAJ0MPflnvut9txSV7+n29FvRo3Kj/8AA==);fillColor=none;fontSize=30;strokeColor=#0000C4;" vertex="1" parent="1">
          <mxGeometry x="437.3333384195963" y="289.9523696899414" width="23.047637939453125" height="28.158740573459227" as="geometry" />
        </mxCell>
        <mxCell id="JT7VKMC9h3Lh3f7lyLex-118" value="" style="shape=stencil(fZXLbgIxDEW/ZrZXztPxmrb/gVRaRqWAKH39fT0aQXHQeBcy94TYvo6HtPrYro+bIdLH+XR423yPz+ftkB6GGMf9dnMaz7oa0uOQVi+H0+b1dPjcP8+/j+tJOa3eD1/TCT8zF4hANGGRfuet68bTDOzG/Q0gDSUafYAkR5+R2OgZJMv61tDEnp8QqgNUhGCBiugBoQc0hBaXAS7I1QIN5ABVkIoBUkb0gIScDJAJwalCYVSbpVzAThlKRLFlLgThZSDzHVBQswPE/kpVY3CA1BBslmp2raFJJGulymAPoL5wrLVvy8DkzWwBta9TuJggzQKM4NRBrUa2fVhQHSA0VOtW9W9zYlD3Z3ulllx7h4xig25aaccaIYK7f2BEx60hXD5fgea6VfobCbktzRBbZ9EcORFUFGsk0Qb02u3iy6s+g53zNeE2Xqmg4riibx1h16fhUp+rviGFZT2h2edF5PIGLui7vlF9dlqZ+jde9dXJ593MUb04+bnT34ytBYDzXcDmpdDF/0x8GXe7eaTefu9nqG7N8zc9/gE=);fillColor=none;fontSize=30;strokeColor=#0000C4;" vertex="1" parent="1">
          <mxGeometry x="438.28571404351135" y="293.57141876220703" width="25.714280870225668" height="29.571431477864582" as="geometry" />
        </mxCell>
        <mxCell id="JT7VKMC9h3Lh3f7lyLex-119" value="" style="shape=stencil(fZXZcsIwDEW/Jq93bMnrM6X/wQxQMqXAAN3+vsqkocgNenNsHdm52jpeXHar06Yjd7mej6+bz3593XX81BH1h93m3F9l1fGy48X2eN68nI/vh/X4fVoNlsPq7fgxePgaOe8cnBswct/j1m3jeQT2/eEOqBU5KHsPz4Z9QmVlH1CKYU8IUft3SPExUORBDcAo3gAifANUUHgM5IqoJaKIWA2A4YoCmJAMkVICN0BFSo+BKMdZq5oQjRsig5ICIiEbKoWM4DVQwBbgkfUNicGGSpyQqgYyajYAalXKfnIxC1BB1Lmaw5Qs80AE6SflDDaeRBJXrdKQLEZ6S3WxBor9D77A6+Qrtqw+wet/KFJxRmr4gKgDV24u5gFJb13SJU9CzwO+jXQpyNaTRCUdOKnySkbXaEWqftqZr9A2V6XteMN/asNc2SyGOLWsm31AMCQNbbFV6TCGf7m98W+XP0396mYv5W30F4Jr3iNpaEW4baliX40y+Dd0ZKxYOerayr+bW7+ALP6G3Lbf78cZeX/eDkXZGgcqL38A);fillColor=none;fontSize=30;strokeColor=#0000C4;" vertex="1" parent="1">
          <mxGeometry x="440.47620137532556" y="297.9523696899414" width="24.857126871744793" height="28.095245361328125" as="geometry" />
        </mxCell>
        <mxCell id="JT7VKMC9h3Lh3f7lyLex-120" value="" style="shape=stencil(nZVJbsMwDEVP4+2HSGpcp+09AsRpjKZxkKTT7SvDkBsJMRfdydJ/HCTS7GRzPWzPfcfmeruMb/3XsLsdOnnqmIfTob8Mt7zq5LmTzX689K+X8eO0m7/P20k5rd7Hz8nC98yRMTBmwtj8zFvLxssMHIfTHZAcElV6i+AVvQHFSk8ETutAZKQGiKqHkODrDJhBpAACqT1whFVy9h4pVIBYJKcApvVgCSLrgBPEBgjwvA7k42ArIJsQDWBwA0Q1JAkwqQK8gJRbEoapPficg/LSHGBrIGQTSg4spXIWwCEq70AJoX64XCysAR6h9pDL0SjFRxbsa8CWrB4D3PZD9HCaB1OOFyAWE487DrZxkOCUiGKrT0YNKD9qfaeJ4LTuKa2y6Lnc2Yqe6qpIorazK3W/6C1IKWxbyn7RO5BSEwLb6L0aP8M1+qDGT0im1SfFvkFs7ieVTl3RNz/4u3/+f4G8+Jso++F4nAfS/Xk7gfLWPL3k+Rc=);fillColor=none;fontSize=30;strokeColor=#0000C4;" vertex="1" parent="1">
          <mxGeometry x="441.6190745035807" y="303.66665395100915" width="26.38092041015625" height="28.000020345052082" as="geometry" />
        </mxCell>
        <mxCell id="JT7VKMC9h3Lh3f7lyLex-121" value="" style="shape=stencil(jZXbbsIwDIafpreWHefka7a9BxIwqjGKCju9/YyqdrgUa3dp+n+Jz2l4dd6vT9sm4PnSd2/br3Zz2Tf81ITQHvfbvr3oquHnhle7rt++9t3HcTN8n9ZX5XX13n1eT/geOEIExCsW8GfYmjZeBuDQHm8AqcDJ6AkCO/oIHI0+QQ6P9bWCVHs+AZMDJBB7AUWIjkUVIc0AgeK4XCIkNoD6UB0g17nPHADFAQKQDSpXIAdI6nQ2QIxATpSSZtX6EAVqegzoedkCeic6iWOBZAspow9EKPaGPO0sAwghWEAA62NA0yTFAIXHQC8DAYINa8ljdS0CpNUqBtDqIsckyoDWpMqAjknEEMkC2kCeSTQWwgQUKNnp0DGGk14rw6m9AtHmWQiKY9Cdx8JuQ2vh2RzoCKlOSPnu/AzJi+ho7aSvY28s6nVc2BSLuBMPgcNcXxz7cZ5g1Wcn/ncD+2aG/9sB9hpzIaBi9Lr4e1B27eEwvEe3/+cPkG4Njxc//wI=);fillColor=none;fontSize=30;strokeColor=#0000C4;" vertex="1" parent="1">
          <mxGeometry x="442.4127010769314" y="311.8571345011393" width="26.920627170138914" height="25.746042887369793" as="geometry" />
        </mxCell>
        <mxCell id="JT7VKMC9h3Lh3f7lyLex-122" value="" style="shape=stencil(fZXbbsIwDIafpre/Yud8zdh7IFFGNUZRgR3efq6qsiajvktTfz47buzmetxd2obN9Tb07+1Xt78dG/vSMHfnYzt0Nzk1dtvYzaEf2rehv5/30/dlN0qOp4/+c9TwPXFkDIwZMTY/09Xj4nUCTt15AeSEwJV8Doq8gwuFvEdW9Kdc6yeCJwWI4DIAcmANYMQKyCC/DsSIkAqAHaJVAAbbArAGPq0DISCWFmwAOwUgxDKrjsCKBS8WfAmIBVYAmsv0qJsUOq8DLsJUhfZq0I4RSpd8RlQKZ9OsbwaChVNcsg65tCCJTkrQlhDKGEKeK/MU4ATOBSC1j0ovSfebCpAsKZVmrtMa03zzFJBmrlxKBk6ZOAoIVAKstrfMl6kASbSSpXGCK5ciSAk6w5XzI6+CNtKxjiATSAk5zNYf8hKx0heubrzxVdP6qH6ScoDRigwqa5yjGi/NXbyQT4p+mdxKPqv+/NsJizWx4pBxtYHyOZLD3w46dKfTtMKW/+udJVfTvrPbXw==);fillColor=none;fontSize=30;strokeColor=#0000C4;" vertex="1" parent="1">
          <mxGeometry x="440.85715230305993" y="319.2857030232748" width="27.523824055989582" height="26.47620137532552" as="geometry" />
        </mxCell>
        <mxCell id="JT7VKMC9h3Lh3f7lyLex-123" value="" style="shape=stencil(fZVJbsMwDEVP4+2HKGqg1h3uUaBJYzRNijSdbl8aht3QibmTZT5Jn/yiOr772D29b7oYPs6n4+vmu38+7zq+72LsD7vNqT/rqOOHju+2x9Pm5XT8PDyP3+9PQ+Qwejt+DSv8jByFgBAGLIbfcWqeeByBfX+4AJogRRMfUbMTz+Bk4huorMdLBTUTTxmtOkACsQV0h7QOVIEUqyBNM7cBRrBHYnJ3KBVsc8QF4mgohEoGSBGR1oFcrgDdwQPm9SYgB4ijIQmi1ZDTpOo2kFCyBSqy46REiLYOJSA5GlhA9khFK+No4DQ5ZwYyxDErR9ACEHBbB9TMyWqomlZ2gDL9ngG9II751JtkC1dVg5PWSMiLI2kpnSwN18XaWwKyOMBstRmIrmhSa9geo5fW00ARSSzgXyDSE9u0irj2FtRFVwoojrvrssm06Jo7I1urtjQ1kdvOQ7M1aBnFqYE23cX6c9+8nSBUm9Chjzt3TRtcWMZ7XTigWtO1NvX9lfhwFd/8eHuei4drBZC8FMBGsA7+X8Vtv9+Pj+rl/+UrqlPjC8wPfw==);fillColor=none;fontSize=30;strokeColor=#0000C4;" vertex="1" parent="1">
          <mxGeometry x="437.85715230305993" y="328.23808542887366" width="28.047607421875" height="25.380958557128906" as="geometry" />
        </mxCell>
        <mxCell id="JT7VKMC9h3Lh3f7lyLex-124" value="" style="shape=stencil(fZTdcoJADIWfhtvMJtm/XFv7Hs6IhakVB+nf23cZCrKr5G5d8wEn5yQV727N4VpXZG5D373X3+1xaCp+qYjaS1P37ZBOFe8r3p26vn7ru8/Lcfp9PYyV4+mj+xqf8DNxaAwYM2Jkfqer5eJ1As7tZQVIBC9ZPYKxSr0Fdlm9g6g8P8ayHglIFMAB5gLQgQ/bQBAImAFJAikSAkPgHAhg/TbgQ6mBGSIqAALGDLAGUHmDc8C5Cza11W0DVuauLzYgsOKDteDyLjkPNm4DLCWQVJHiA9vSB69Hg03pdDBASltT1ELe1mBVDSkI0edAiqOiAeOcnBmICKKkFS1IruGe3+cAzUFYgACRlIErjZY00KykGyRXIKR+kJ8bstQziGKCK/eLpOwq08bg82ETP98896ycNUmKlHp8+H4BUvr5sB9XK/MfSIf7fj215/O0ntf/l/s4XU27nPd/);fillColor=none;fontSize=30;strokeColor=#0000C4;" vertex="1" parent="1">
          <mxGeometry x="438.95240783691406" y="337.57142893473304" width="24.285685221354168" height="18.380945841471355" as="geometry" />
        </mxCell>
        <mxCell id="JT7VKMC9h3Lh3f7lyLex-125" value="" style="shape=stencil(fZXLcsIwDEW/Jts7tvyS17T9D2YIJVNKmEBff18xaVIUQDvH0bFl6Upqwuq0Wx/bhtzpPPRv7Ve3Oe+a8NQQdYddO3RnWTXhuQmrbT+0r0P/cdiM38f1xfKyeu8/Lyd8j5x3Ds5dMHI/49a88TIC++5wBdSIou0jQn1szwVUlL33CGQAHi5rIIPDY6AwsvbIVzjDpRKQtUsUUOJjIDM4aoBBRpCyBEnfEGgKw31AHs0aSCj5MZAKatKAPDoZQIIjnTeyAY9aNZBABhBnB2aAES0gTXmdALkzWwAhLABxyZBG4JsbRCyG+CTqUUdJMlMtgOC1+HKCNwCSKGlpiLrIAjK8Fl/x9g0BQbskgmdD3lLxSSeuZDNxXjzWapUaLGwAeRkldmBvAHGqrxkgsOUSIWm1ckQySlS6kNd54DnQ9xvfdP9sX5CtxoeklcQVZJxfli+uEiLjfCke7X8lRON8aUm6FKSTe+P8sOyqNSFZKlr2+VrgjQ7mpv4227Op0ps5dTW6/gBZ/M+5bbffj2Py+v9yLsrWOFPD8y8=);fillColor=none;fontSize=30;strokeColor=#0000C4;" vertex="1" parent="1">
          <mxGeometry x="293.52382914225257" y="479.09523264567054" width="25.142852783203125" height="24.571431477864582" as="geometry" />
        </mxCell>
        <mxCell id="JT7VKMC9h3Lh3f7lyLex-126" value="" style="shape=stencil(fVbLctswDPwaXXcIgM9zmv5HZuLUnrp2xnFff19oVLEGpeImUbsigAWWnOTp4/jyfpg4fNxv16+Hn6fX+3GSTxPz6XI83E53fZrkeZKnt+vt8OV2/X55Xd7fX2bk/PTt+mP+w6+FRyEghJnG4fey1Bc+L4Tz6fJAaA1cBnxKDr6As8EzanHwEUwGn8HRwTOijadifvsfvmr8yeCJkMQhJMRqCWndcp9AEBsRNSQnhVIQbEgsKNkhMEq0hILmhJQrxIogDCKHIOv/OiGDnLKmhjzs0NCaQ9iUNWrS1SGoTAOhQJwc9PNQpRRQHaVjRBgIvRn3CWHMIWlITtJSQM02d1iV2SdECFsCozlVEkK2OWQttDPP3CA2h1zcbuVtDqq9ExKncaILoTiWod3PdociyE5ZWVtj2CEhO92qA1ltt+oMJkcHqiA7oqUhOiFRHrtVbYGdKqmpkBWu+kZJgjoQerPsExjZOr1aW3aUpk1Za0b1cuhHQSfU1dr2zRvJCq3uTI4MFVkMvoX1dNk3yjHj1r153/bGhPV08VpbR2vAq286EmymuanqTjwy2nbLEG8211HveN8ie0t2fEV0HDJs8tUpcPTd3C0erht/Cfrw727ydjqfl6vN4/fxLqNLyz1Inv8A);fillColor=none;fontSize=30;strokeColor=#0000C4;" vertex="1" parent="1">
          <mxGeometry x="292.85716247558594" y="476.04762522379554" width="34.761932373046875" height="34.476216634114586" as="geometry" />
        </mxCell>
        <mxCell id="JT7VKMC9h3Lh3f7lyLex-129" value="" style="shape=stencil(fVbRUuMwDPyavO7Ylm3Jzxz8BzOUa4Zey5TCHX+PMjmHyoDenGTXkVZa2RPdvOzvn3dTCi+X8+lp93d+uOwn+jWlNB/3u/N80dVEtxPdPJ7Ou9/n0+vxYX1+vl+Qy+rP6W3Z4d/KiyEghIWWwvv6antxtxIO8/GK0BpyHPA1O3hGtfiExg6+INl4Clpx8ASx+zOKF09ELAYfNQHnB8Jo2RIyYnQI+lksQRCqQ1DFm5UoITkhcQEnS6goTtE4IrAhUIA4IdWKZFWl0uv+PSH0KnVCDoj0M6FoWW0OObs5lNhV3wji5pBVE5t00dZzQsqqerWECnb+QIJkc1AZstPclJFtc1fq3fU9QQtHlsAITmskGdu7NlcltVexIXFCbg6BejNvhAwRhxDA1kDMIKcOapdq/cANxUk61nEGSERJDqEg2qSFQE7hIvUANkJx6xATom0+qe5cil8MtAweR9YGtiJJQ3JUlRHfgpsyQ6xEOjm9qtU+1je82smJvyIO8RCiUzOdP9ZrLSM4++c+1Te8VsyzGoRHvDgTj8YWatU9R9RV1sl6MrotBx7ikX5M/IAfJoXim2N8nVTWlcvJ7szfL/eEq6vDf4IuPu8Zj/PhsF5Trr+P9xJ9td5p6PYD);fillColor=none;fontSize=30;strokeColor=#0000C4;" vertex="1" parent="1">
          <mxGeometry x="292.1904958089193" y="475.09523264567054" width="43.04761759440104" height="39.809529622395836" as="geometry" />
        </mxCell>
        <mxCell id="JT7VKMC9h3Lh3f7lyLex-130" value="" style="shape=stencil(fVXLcsIwDPyaXHcsy88zpf/BDFAypcAAff19lQlJowC6OdZu5JVXVsOLy2512jTeXa7n4/vmu11fdw2/NN63h93m3F5l1fCy4cX2eN68nY+fh3X/fVp1yG71cfzq/vDT88g5ONfRvPvtt8aN156wbw8TQi2oeYb3Fj6ji03wHsQGPoA0PqJ6A0+o+vwFnJ7ji4Q1nrwpoDAqa0JCMTLkCiKtmIaaPSYEuKAJGWwQUkHWGtgjWwSei+YCZ1Q1SliLDmxWKUpYiw7ZrFIQDZoQ5R6qQQhI2ngxIRhOCg45KkJyJoHlXqsmBFM0M4L2aspDzscEB9I3nQlkEMQIs24Qs9zc9ZgQ5kfKosrKQMhatPg3hOcEkrC+uCK/MMpKdy+AtFQxykoRXpuvRBTD3iTm02Ut2c5Ag8SRUBGNDBVFn0ieHW/gCyhpvDefgISkSyTPIBej3YbsIz4O7fS4F+B0K9RknsfPO6Ha3eznNpUxEY1mpqGvRnwFG+d3SGGOt1x9N9Qmc+5GkMX/UNy2+30/U6fx+RCVrX4A8/IP);fillColor=none;fontSize=30;strokeColor=#0000C4;" vertex="1" parent="1">
          <mxGeometry x="290.38098653157556" y="487.66666412353516" width="37.04759724934896" height="32.190511067708336" as="geometry" />
        </mxCell>
        <mxCell id="JT7VKMC9h3Lh3f7lyLex-131" value="" style="shape=stencil(lZbRbtswDEW/xq8XkihK5HPX/UeBpouxLCnSbGv/fjIMa6GacNibLd9jidQlpYke3vZPr7sphbfL+fR993t+vuwn+jKlNB/3u/N8aU8TPU708HI6776dTz+Pz+v769OiXJ5+nH4tf3hfuRgCQliwFD7WoT7wdQUO8/EKUIFko4/I6ugLohg9g6qjj9Bo/x+Q431AFJktQEjODMKIagFBZAcIIDtDIrCTo8rIZIGWteIAAckClJGcoEuGFguomyVWqN3m3GYQB2gz2CxlgSYHCIjWGEzITpYyow5ABTv7kJvTqgFKH7kJUN1C7ABvib4NEGgA2sY5QScdq6Gmze+3gbK5vwMMzg5Ao1uruOZr9cvJAM2/6gCL+20MkqBOWiNvnzuQIU4PaAUpA1B8IEJsxYmgOhv3yd36j6YBsk2mtZ3iLKgiWF+onyIe168Z0WkAeTN+17Nbnb2yur64tZaQbbvQCnLWE7dsd71sGbijD3HUi7OeMDZI1c21d/TDIXV1bt0BWMYJihtAKaM+eGWJlP4nYPpk0OquR8ZG1Axk420Pfw/1l/lwWO8E19/HS0AbWi8Q9PgH);fillColor=none;fontSize=30;strokeColor=#0000C4;" vertex="1" parent="1">
          <mxGeometry x="291.61906941731775" y="494.7143122355143" width="32.95237731933594" height="29.78570302327474" as="geometry" />
        </mxCell>
        <mxCell id="JT7VKMC9h3Lh3f7lyLex-132" value="" style="shape=stencil(fZRNcsIwDIVPk+0bW7Ite03pPZghlEwpYQL9u32dSUNRCto5zvss6VlWw6vzfnNqG3Lny9C/tp/d9rJv+Kkh6o77duguddXwuuHVrh/al6F/P26n79NmVI6rt/5jPOFr4rxzcG7EyH1PW9eN5wk4dMcboBQEWuhDNPQRJSp9ABvn54Lold47pGAACaQL8IzCBuCQdUa+mClJgOiUKM4m3AWSQHRKTGaEVEvUpnKB84+ByJCkXY3IBhAEQacUyYwQPKJ2KQpyeQxwveisgMRg4+LYQRZABhkRKMFpQAjFsJVqiUEDYhbtM1gXPTaLGECEFw2w6ZInxAWQECzAgVkDGclIKc/PcdaX2lxGgATRrVdobsb7rbd8biWADE+rHzr/OhHEOL9GX5xf78wyaH5ZV331Jz3W/5t3NyPwF6iLv3m56w6Hadze/l/O17o1zWZe/wA=);fillColor=none;fontSize=30;strokeColor=#0000C4;" vertex="1" parent="1">
          <mxGeometry x="290.85716247558594" y="503.09523264567054" width="32.95238240559896" height="28.380971272786457" as="geometry" />
        </mxCell>
        <mxCell id="JT7VKMC9h3Lh3f7lyLex-133" value="" style="shape=stencil(fZTZcsIwDEW/Jq93bMmL/EzpfzBDKJlSwgTo8vd1JoWitNGbLN9jW4vV8Oq835zahtz5MvSv7Ue3vewbfmqIuuO+HbpLtRpeN7za9UP7MvTX43ZanzajcrTe+vfxhM+J887BuREj9zW57o7nCTh0xwegFKS5vlj6CApKnzCulvQi8Pp8H0DFAOo2a0AQZRnIGUUUQBEcDMDNASYEXgYSg4sCggMZSYoRooMO+eb5FwgC8QqIwSxDqC/WQPLwcRngdDvvDtiFYw+JCqh5y0YdKM8LlwPESCsRctZAgTNiqI0wi0EIxai0j3D6SZIQjObzHkmnVQo4Gd2KpC8oBGfoI3zS+vqfspEjsG7VImC/rP/z+x8Gwg9Qjd/psesOh2n4PO7Pp011TZOK198=);fillColor=none;fontSize=30;strokeColor=#0000C4;" vertex="1" parent="1">
          <mxGeometry x="307.6190745035807" y="507.66666412353516" width="16.000020345052082" height="14.095255533854166" as="geometry" />
        </mxCell>
        <mxCell id="JT7VKMC9h3Lh3f7lyLex-135" value="" style="shape=stencil(fZLZEsIgDEW/htcMJA3Ls8t/dMZqGWvr1Lr9vWVwKVV5C8k9gZAraHGqy2MlUJ6GvttXV78ZakFLgejbuur9MEaCVoIW266vdn13bjfxfCyDMkSH7hI63CKnpAQpA4byHlPvxDoCjW8ngHXAmOgdYEZvCIxK9MivDj8BLaFIAbJQZADm+QQFgTP/gVCmBBhbqAxACFYngGZw/B/ArycZzv6qsoDp0BaBKAMgcHqDNa/M7z2Anq2NQGX0BaBL9Ro4M/KXjSbOegJj8LHh1jdNdPG0PrftmIqWp9UD);fillColor=none;fontSize=30;strokeColor=#0000C4;" vertex="1" parent="1">
          <mxGeometry x="317.52382914225257" y="514.3333307902018" width="6.666697184244792" height="5.523844401041667" as="geometry" />
        </mxCell>
        <mxCell id="JT7VKMC9h3Lh3f7lyLex-137" value="" style="shape=stencil(fZRLcsMgDIZPw1YjEAhYp+k9MhOn9tS1M47bJrcvHvowuNYOC3168FtSdLi1p2ujDN7maXxtPrvz3Cp6UsZ0Q9tM3ZxOio6KDpdxal6m8X045+/rafFcTm/jxxLhnjmNCIgLZvCRTb+G5wz03bACIgP7wt+A433/EEHbwl/LCYIGphLwgLQP+ABGlxUhkBOAlKECGKLZB9hCMAVAFrRQktuUZBGCFwADVGawHrRQkk0VcwGkEFZ4VmtqHZz/KfJfgDY9sAYvZFjepAKc2DQlmcoeOIIThEsyVcJ5AgwCQHUPnsELf6uOtdIBwUQBYMByHIKVgY3SwUMUeghA5TjEFEHQzQKXOqeJtYIKm/lfrYRvIB3+9sel6/u8ftb39b5Jpryr6PgF);fillColor=none;fontSize=30;strokeColor=#FF0000;" vertex="1" parent="1">
          <mxGeometry x="326.47622172037757" y="475.09523264567054" width="13.333323160807291" height="14.857177734375" as="geometry" />
        </mxCell>
        <mxCell id="JT7VKMC9h3Lh3f7lyLex-139" value="" style="shape=stencil(fZTLcoMwDEW/xts7tmT5sU7T/8hMSGFKIUNIH39fM5QWk+KdETpgXV1J8eFWn66VIn0bh/61+mjOY634SRE1XV0NzZhOio+KD5d+qF6G/t6d5+fracqcTm/9+/SFz5kzWkPrCSP9NYd+A88z0DbdCoiC4LN8iyiFfAOyWb7RcHEfCA7kciBFfAFgkMmBCDb7gPfgkAEkoEIN3sDEDGADcfuAsxDKgQAu1CAeknfBCrjQBtFbWYVgCoAl+A0QoXkfYIHNVXICT/sABUjuDJ+uVJCVCC5XKXUmFlQyD41LvTclgLayBr/8838vLdZc8pN92RZUhc+9msaDCtajbQExQBfu8zCcq3n9AdLhb7gvTdvOu2H9frsMUmheJHz8Bg==);fillColor=none;fontSize=30;strokeColor=#FF0000;" vertex="1" parent="1">
          <mxGeometry x="324.9524281819662" y="476.8095270792643" width="20" height="19.238087972005207" as="geometry" />
        </mxCell>
        <mxCell id="JT7VKMC9h3Lh3f7lyLex-142" value="" style="shape=stencil(fZTLcsIwDEW/Jts7tuSX1pT+BzOEkiklTIA+/r7OpKGINto59j2RLV2p4dV5vzm1DbnzZehf249ue9k3/NQQdcd9O3SXump43fBq1w/ty9Bfj9vp+7QZlePqrX8f//A5cd45ODdi5L6mrdvG8wQcuuMdIBnslZ6R4rK+CFJReu9RaBnIgkwKII8kBhAQ9AsomRFSRNQROKKkZSDW46iAEBHCMhASQlZADIhGBC6PVUhkXondnPUZyLVueRmgABINJDgjrV5AOkLx8N4Aak50WkuAGNbw9Fi4kiHGowWirSRuDvm/9+CS1teIbBgDXr9YAtgqM5i1vhrFSCnNPr7ps+lsD9KtJmKW7E8r33X3D1AXv6Ng1x0O0yS5P38cHXVrGju8/gY=);fillColor=none;fontSize=30;strokeColor=#FF0000;" vertex="1" parent="1">
          <mxGeometry x="325.52382914225257" y="478.14286041259766" width="23.619049072265625" height="26.095235188802082" as="geometry" />
        </mxCell>
        <mxCell id="JT7VKMC9h3Lh3f7lyLex-143" value="" style="shape=stencil(lZTbbsIwDIafpre/EjsH55qx90CirNUYRYWd3n6pujLMhqXduen/xYfYbnh16jbHtiF3Oo/Dc/veb89dww8NUX/o2rE/V6vhdcOr3TC2T+PwetjO38fNpJysl+FtuuFj5rxzcG7CyH3OR5eDxxnY94croBS4+B99QmClJ6Rg6B0KKb0sF/ypl4zgld57SDEAj6gd+IxE94EcloAvGQSw4SEliCiACWTUKApiVkBwCNEAHJIuahCwAQSG0znECDGS5oiic0j13fJ9gAqyDikJxHjoWkQqCqiFZn8f8AUhaaDAGyH5CNaAMIKRdO2crEOq3UVGDoKkHdTujYb+V1ELg4zmZng9m9M0GSVyS+df9IKSLP3N7F+tg2+gGj+7Y9fv9/Pquf5/u2vq0byneP0F);fillColor=none;fontSize=30;strokeColor=#FF0000;" vertex="1" parent="1">
          <mxGeometry x="327.2381134033203" y="480.4285659790039" width="26.666666666666668" height="27.428609212239582" as="geometry" />
        </mxCell>
        <mxCell id="JT7VKMC9h3Lh3f7lyLex-144" value="" style="shape=stencil(fZTLcoMwDEW/hu0dS/KLdZr+R2ZCGqY0ZAh9/X3NUFPUBO+MfI99LQlVsrudD9emYnMbh/61+WyP47mSp4q5vZyboR3TqpJ9JbtTPzQvQ/9+Oc7f18OknFZv/cd0wtfMkTEwZsLYfM+hJfA8A117WQF1QB2UnkG2oGeIPr+GoW19tLBe6SnkyGPAwJI2RAiFG4LAakfJEoVtwDs4qwBJlmQbcMt2BqyDL1iyNYQV4AQuFgCC15a8QXDbgFjEqIEAKtzAEVFnKTBi4Q0sEF2HkFqFtwGK+YkZiJyPeAzYnMQF8KASQCCngZToQuEiRPde6l5T0PvcN4ve5hsflw2sy1x7mIKe7/yklBb0BlF3RZ06u1CCu39/NQ5+gbT4mx2ntuvm0bPe/z9rUmieU7L/AQ==);fillColor=none;fontSize=30;strokeColor=#FF0000;" vertex="1" parent="1">
          <mxGeometry x="328.38097635904944" y="482.14286041259766" width="28.190470377604168" height="32.571441650390625" as="geometry" />
        </mxCell>
        <mxCell id="JT7VKMC9h3Lh3f7lyLex-145" value="" style="shape=stencil(fZTbbsIwDIafprdWEudgX7PtPZAooxqjqLDT289VFYYz6rvU/b84sf+4w83lsD33XXCX6zS+9V/D7nro8KkLYTgd+mm4yqrD5w43+3HqX6fx47Rbvs/bWTmv3sfPeYfvhfPOgXMzFtzPEroFXhbgOJzuAM4QSekRiA29A9R6L5G0DhBCiBooEP06UBhyUEDw4KMBBKCiAQKf14Gc2gyYoBgZUgFmBUQENKqUHBRUgEQI1wHZj3SVJGcxMmCBrPuQIwTj0hgA9ZEyAxtAkDbpKpUIXAxAauI1wOAMwHO9YgUoQDasIc5xOgMliIa7fYSk70DF7IMP4LWXiGvvH7+HWpKqZw9sJJCuNno0rZfbG3MyX09suywPnKym1dPe9OJ1MgpUy3fTUzXiQ71rbcoMydT71IwXe4D9m3eSAJVeFn/jcj8cj8u0vf/fjlcJLaMZn38B);fillColor=none;fontSize=30;strokeColor=#FF0000;" vertex="1" parent="1">
          <mxGeometry x="329.42860412597656" y="484.4285659790039" width="32.476175944010414" height="34.23810831705729" as="geometry" />
        </mxCell>
        <mxCell id="JT7VKMC9h3Lh3f7lyLex-146" value="" style="shape=stencil(fZTLcoMwDEW/xluNbfkhrdP0PzITUpjSkCH09fc1Q6GIBu2EfI8srhAGD/f6dKuMt/eh716rz+Y81AafjPfNta76ZiiRwaPBw6Xrq5e+e7+ep+fbaVSO0Vv3MVb4mjhnLVg7Yt5+T6kl8TwBbXNdAcyQ40YfkqKPkJPQB0iKnhiQhd55cKgAEZKTQAKf94HM4LIAPILzCuAgkwDQArt9ICEE6REypLAPxAjWS5NIdTWkbUsxzyUeAkhAKIAUgJR3QAdRAsUGUubgl3oLQLPRDwHHYOUNhJCVGxwCS5eI1EkzkBwDe7DaGCDIhsrHS6w0NJ8u+uKysjv/Vm21fb9ACf5W9dK07bTp6/PtapfU9FvA4w8=);fillColor=none;fontSize=30;strokeColor=#FF0000;" vertex="1" parent="1">
          <mxGeometry x="339.42858378092444" y="487.66666412353516" width="25.142862955729168" height="27.809539794921875" as="geometry" />
        </mxCell>
        <mxCell id="JT7VKMC9h3Lh3f7lyLex-150" value="" style="shape=stencil(fZTbcoMwDES/htcdW/JFek7b/8hMSMM0DRmS3v6+ZmhSTAa9GXsPZldCDW8uh+25bchdrkP/1n51u+uh4aeGqDsd2qG7llXDzw1v9v3Qvg79x2k3PZ+3o3Jcvfef4xu+J847B+dGjNzPtHXfeJmAY3eaAZoheaHPYug91Ff6hBzW9UIYz2Z6n0DGBTlBtQLII/p1IAlSfQMpxLAcFbG2zIJIBuBANRAyNK8DwSPUHmJxZZhmvlm8pxogvA7QQ0rZTqmEqKEGEkTXAV8sxgoQB00GEJC4BgLYqIMvrbEAMjgaQKlD7UEUyYhVwFLpS/dmo9Dp1vp3PSMYliNcHZFGkOG4VHmhL2U09ARfB6QCMr7n4d+fjYM/oCz+Z8e+Ox6n0TM/X86asjXNKX7+BQ==);fillColor=none;fontSize=30;strokeColor=#069968;" vertex="1" parent="1">
          <mxGeometry x="293.1428782145182" y="522.3333307902018" width="17.904764811197918" height="16.380971272786457" as="geometry" />
        </mxCell>
        <mxCell id="JT7VKMC9h3Lh3f7lyLex-151" value="" style="shape=stencil(fZRZboNADIZPw+svj81sz2l6j0ghBZWGiNDt9gXRpJgGvxnjzx6vheyu9eFSFUzXoe9eq8/mONSFPBXMzbmu+mYYpUL2hexOXV+99N37+Th/Xw6T5SS9dR+Th6+Zc0QgmjCm71l1VzzPQNucF0AOCKWyF4hs26cMCcreOVA2AELQDxpf5IwI0SOzBkqEsA2EiJh0CoxoRPAZpHMo3S2rxwCBRQHeruroL6yABJe2AREkDQSPZETggOwVEBli9IEdnO5DjDcXDwEXwLqsiW2AwVEDEWQACVmPXiZIaTQafmUvoGh0AVFnnL3Ztfvk3+3HiEZJ3bpnOZm7Q+vBztlcnX+rvNjuX2AU/k7BqWnb+ZIs/69Px6iaz47sfwA=);fillColor=none;fontSize=30;strokeColor=#069968;" vertex="1" parent="1">
          <mxGeometry x="296.38097635904944" y="520.8095270792643" width="20.76190185546875" height="20.952392578125" as="geometry" />
        </mxCell>
        <mxCell id="JT7VKMC9h3Lh3f7lyLex-152" value="" style="shape=stencil(fZXZcsIwDEW/Jq93bMnrM6X/wQyhZEoJE+j293UmTYrcoDfH0ZG1XbvhzfW4u7QNmett6F/bz25/Ozb81BB152M7dLeyanjb8ObQD+3L0L+f99P3ZTdajqu3/mP08DVx1hgYM2JkvqetZeN5Ak7d+Q7IGdFV9skp9h7ZCnsPo9injJyFvbWgpAABniTg4JUMkqkjKilQfAxEB1cBAUEJKUSwDIkZ3ipACUAW1RmwUiVf/FVACUkBXJz9LW0gsBKSIxiWQIQLjwEuv+UgBQJlBWCYKIGgdpoyvAwplGFRQqLF3wxEnjuzDjCcPCEWF9oJBkHmEDNIGT6bYOQsJYvMCuARvAQc2CtASVEKqChEm6Wir0pAKc3juC7p+gYYNatUNcHKGmU7h7iuBiSZQKa5ButiqPWcGVHpgUOU+WaHpPjnWVmLfZibuD4UiEHaR30mEKv6JHVK/93Yd5f4L1AWfzf+oTudpgfj/n/9QpSt6XXh7Q8=);fillColor=none;fontSize=30;strokeColor=#069968;" vertex="1" parent="1">
          <mxGeometry x="298.6666819254557" y="522.1428604125977" width="24.190511067708332" height="22.666676839192707" as="geometry" />
        </mxCell>
        <mxCell id="JT7VKMC9h3Lh3f7lyLex-156" value="" style="shape=stencil(hZRLcoMwDIZPw1ZjW7Zlr9P0HpkJKUwpZAh93b5mXFLkgLqThT5bjx9VeLg1p2tdGXWbxuG1/mzPU1PhU2VM2zf12E7JqvBY4eEyjPXLOLz353y+nubI2XobPuYbvjKnlQKlZsyo7+y6O54z0LX9CogEGFi8gRCEeAXBs3itwAgPBAPoOBBB+32ACFzkGVmYj3uAj2UJmGqwAqBAc8Dek9wEnF4yXoDk8bQPpPscn4KXu4QWCDlAQEJKJoDRDCALqAXAgOdFUwQvADqA5UBAcCgArmxr8GCFLmkDRBwI8gtJfFwaSY5aUjc4rr2oxYwIYhH/j5LAFPGyVB+mHN0i9m1ZlEOOfvn9thsEVPQnyUTI/2FZrPbHL5CMv2Vzabsu76r193I5JVdebHj8AQ==);fillColor=none;fontSize=30;strokeColor=#069968;" vertex="1" parent="1">
          <mxGeometry x="303.2381134033203" y="522.1428604125977" width="26.666666666666668" height="24.285725911458332" as="geometry" />
        </mxCell>
        <mxCell id="JT7VKMC9h3Lh3f7lyLex-157" value="" style="shape=stencil(fZTbbsIwDIafpre/4jgnXzP2HkiUUY1RVMoOb79UFQx3qu/cxJ9r+3fc8OZ63F3axrvrOPTv7Ve3H48NvzTed+djO3RjtRreNrw59EP7NvS3837+vuwmz8n66D+nCN8zR87BuQnz7mc+ehy8zsCpOz8BkkCs/COI1v2LwJPyJ28DBEkaEARZB3IBacAzqBgALQF2oLwOJEaKGsiIcR2ICaEoIASksA4EQQ66q4TIBsDwuoaYUYyUasZeFDBVZQjNVQctXCrIRpd8Xk5GZgQL8Mi6S7nWYAD0SOAO1GHJRg0UIDqlEsGGDkRgrXQpiNa0grUMUiMYsxdRtArCZsn1Vs+FRIgRv/5dd0iKWfC/1y+CYtTr7tEej9Mt90U1/rbNoTud5mX1fL/cTvVo3my8/QU=);fillColor=none;fontSize=30;strokeColor=#069968;" vertex="1" parent="1">
          <mxGeometry x="305.0476531982422" y="524.9999974568685" width="27.904774983723957" height="24.857157389322918" as="geometry" />
        </mxCell>
        <mxCell id="JT7VKMC9h3Lh3f7lyLex-158" value="" style="shape=stencil(fZXbbsIwDIafpre/Eqc5+Jqx90CijGqMotKd3n6pqnY4pb5LjT9j/7aTyu3u58Otqcjch757b77b43Cu3EtF1F7PTd8O+VS5feV2p65v3vru83qcvm+H0XM8fXRfY4SfibPGwJgRI/M7mRbD6wRc2usDwAmOC39mxd8hRuEfMH5t+SePFIS/rWGTAliEAsgpum0gehhZAS2Wp0BIsLIER3BWASxMATCCkpLPJXoB1AExbAN1LIv2DlQrAMHUEkhgRVYXQXIugkNSVMqasEwp66alRGmONwORYBWVaNW43MqkAXZWfQEYpMiaJ4dkH5LeaevnYV6AbFFktTmeHI0UZ92e70+5DmzmCM+nG1FqxASv7LMHy3y4ViVaTSrnCFoPEOQYcVTzsSAr/fOYKP6m3E1mROV+WV13DzfgBhC4/ANtlw18WiXktYLdyt8oDa6R5CJzQBD++fB/3Z/ay2V6LR5/L5+HbJqeFrf/Aw==);fillColor=none;fontSize=30;strokeColor=#069968;" vertex="1" parent="1">
          <mxGeometry x="308.2857360839844" y="528.4285659790039" width="27.52380879720052" height="25.714309692382812" as="geometry" />
        </mxCell>
        <mxCell id="JT7VKMC9h3Lh3f7lyLex-159" value="" style="shape=stencil(jVXbbsIwDP2avlqJnZufGfsPJMqoxigq7Pb3c1XBiDOsvYX0HHw5x3FHq/N+c+o7dOfLNL72n8P2su/oqUMcjvt+Gi5y6mjd0Wo3Tv3LNL4ft8vv02ZGzqe38WP+h6+F550D52Yauu/l6nbxvBAOw/GOwAyYFT4nAx+BqcJH8MHAe8hc4RmSf4wvDDFWeI/g2SDEhpCgoEFwkEJFQAQ0UsoB2NeEAmT0KLHWgAKQESERuLpJwQEaEWJuCAnQKDp6TZAbLo8JIWpfSMyQHxOoES4hRIsQdISUgQylxTmhjpD9Vcq/CWLNUhOiaT70V11vBAZvEHzRShfxEhmEqHUoAYqhg7hftbVIl6wITndJRoqsedDulpF1Bj7r8WEpORrm1vkwARkVR60BB7PgxkbyREVjdkibgpOpADb4DNkSoOlPgWDYuplMwRdjblzTH3lRjfybhXC3I/6ZkLxnlcBy+F1Au+FwWPbX/Xe9sORqWXa0/gE=);fillColor=none;fontSize=30;strokeColor=#069968;" vertex="1" parent="1">
          <mxGeometry x="310.95239766438806" y="531.6666641235352" width="26.190480550130207" height="25.19048563639323" as="geometry" />
        </mxCell>
        <mxCell id="JT7VKMC9h3Lh3f7lyLex-160" value="" style="shape=stencil(hZXbboMwEES/htfRen1/Ttv/iBTSoKYhIunt72uETLMkbN+MmQP2zqzd2M3lsD23DdPlOvRv7Ve3ux4a+9Qwd6dDO3TXMmrsc2M3+35oX4f+47Sbns/bUTmO3vvP8QvfE2eIQDRiTD/T1DzxMgHH7nQD5ITshZ7hWNFbkBP6DJPX9ckhSL1JIA0gsATGFaV1IFoYFoClusaHQPCwCyCBzTrgY31dARdg4jrgMpwEvEW0ClC2mAUQShmUTdsAFyTgkZU/WFNtrUAk+LAOcKxbnIFipZIktsuyxlSdeQiYjCT3kAzYK0CsyZkBB1J8MA5RLikFWCV8pvgguyEleCUahmCTbAdS+ychyvbMDKOEtbggk1Qa0Cs18jVns77UQLH5rj2zR1JKWkyWnuWAqOgZLFOUI6ISbFN7fdYXAxTHCElGImewqvd3eqekmmBkPW9O2BVgcf7+D8S7FckTtQz+zvt9dzxO18Xt++X9UKamu8U+/wI=);fillColor=none;fontSize=30;strokeColor=#069968;" vertex="1" parent="1">
          <mxGeometry x="314.3809814453125" y="536.0476455688477" width="24.095230102539062" height="23.619043986002605" as="geometry" />
        </mxCell>
        <mxCell id="JT7VKMC9h3Lh3f7lyLex-161" value="" style="shape=stencil(fZTdbsIwDIWfprdHcZzfa8beA4kyqjGKStnP2y9VVYYz6rs0PV/t49pueHM97i5tY811HPr39qvbj8eGXxpru/OxHbqxnBreNrw59EP7NvS3835+vuwm5XT66D+nL3zPHBkDYybMmp/56n7xOgOn7vwA5ISUK71Nit6DvNA7OF7Xp4SYhJ4IVkkoeXAFeBi7DsSMwAIoFnJWAIaRFmxEVFIKHlkC7JdPPAV8riM4C1JS8hYcJZAQFMAFMAnAO8SgAAZBRggGTjFdLJIsaymDIwUojSZTiiWC8uOsrz1Er/Zq+a/RSiDDxXWAAkgCiRGdAhCSk0Bc5uN5LyHJqmaCV4rklvB3vYPXLMNV+rD04nMDsHKay3yzMp6lK4LUZ5Ay/v+2y8PCWUmIUh0gKk3ByKY2YERBy+Fv+x2602leno/v621ZruZNy9tf);fillColor=none;fontSize=30;strokeColor=#069968;" vertex="1" parent="1">
          <mxGeometry x="320.06352912055115" y="539.6666641235352" width="22.79366387261287" height="22.34921603732634" as="geometry" />
        </mxCell>
        <mxCell id="JT7VKMC9h3Lh3f7lyLex-166" value="" style="shape=stencil(fZTdboMwDIWfhtujxPn1dde9R6XSFY1BRdnf2y8ItavZ4rsQzmfnOI4bt7ueD5e2IXOdp/G1/eyO87lxTw1RN5zbqZvLqnH7xu1O49S+TOP7cFy/L4dFuazexo8lwtfKWWNgzIKR+V637hvPK9B3wwPAGTEKvUUiRU/gIPQZJtb12cMmGT8hpDqQGEQCIELyCmBhpQNnYWwdiHRzeAcYietA8NsMPiPkOuADWJoOEawArsTzAogepHhwBCs9JANSMlBEdhII6sWVqkfpIWVk5UiWYaWHbMEaEJBlhtIs0SkAbcuaE5zSGtbASdNZv+l0c3jT873O/3fGtkZcWkWJ78DycXLpFEVPCPKWOYEUfWl8lnqGCXX9n2HxMD8qAIVtAvk4y+J3OJ26vl9n2+P/7TArW+sgdPsf);fillColor=none;fontSize=30;strokeColor=#069968;" vertex="1" parent="1">
          <mxGeometry x="324.90480041503906" y="544.8095270792643" width="18.904744466145832" height="18.4285888671875" as="geometry" />
        </mxCell>
        <mxCell id="JT7VKMC9h3Lh3f7lyLex-167" value="" style="shape=stencil(fZTdboMwDIWfJrdWHOfP1133HpVKBxqDirKtffsFReswE74L4XzBzjnY0OHWnq6NcfY2T+N7892d59bQi3GuG9pm6uayMnQ0dLiMU/M2jZ/DuT5fT4tyWX2MX8sJ98qhtWDtgjn7qFvPjdcK9N2wAjgAeaEvG7SvzxnICT0SWFYAC4EFUCpKeR9IETJJwENSSooMWbZATu05OnCyB2KIfh8IHlgCPgLjPuAzoHQhkPoFj+Bl01H3jQLYLIGoAo4hyB4SqsaVW/fyWlNQeyi+YpSAfq0YgYIAsp6lJWqyh1yOiEq6t8ko8dV8S4BSz8WXoAQD3Eav20y//9ZTH9TzEVjGiPXcIbgk9VkNRXEMpZ4BlXr+DZfVvNkpaPPz8zYSZfE3zC5d39dZuH6/HX5lqw5OOv4A);fillColor=none;fontSize=30;strokeColor=#069968;" vertex="1" parent="1">
          <mxGeometry x="328.8095499674479" y="550.7143122355143" width="14.999994913736979" height="13.095235188802084" as="geometry" />
        </mxCell>
        <mxCell id="JT7VKMC9h3Lh3f7lyLex-168" value="" style="shape=stencil(fZTdbsIwDIWfprdHsR3n55pt74FEGdUYRYX9vf1SdWOYCd+5qb/4ODlxJ6vTbn3sOw6n8zS+9B/D5rzr5KFjHg67fhrOLerksZPVdpz652l8O2yW7+N6zpyj1/F93uFz4SgEhDBjHL6WpcvC0wLsh8MVUDNCMfmMkp18BrHJL+ByP78ootVDipwcgFDFAhXkVMiKSrYDRdL7QGr7JQMIu5ISg60kqe4hqYKspJhQnR5igVhJKigewJBogYroAJJQbIUUkZymhZDVALk5Kd4HOCFZSTlCnVPidtPWGrm4kqggZOs9hjqSqLVoKzQ7qleBIPbiSoF69oZUk18JWh1n/DZ4yY+uuRnVvraaoI63CeFGj/88/02LqwHyA7Tgb9psh/1+GVbX/2+nU1taJps8fgM=);fillColor=none;fontSize=30;strokeColor=#069968;" vertex="1" parent="1">
          <mxGeometry x="331.5238393147787" y="554.1428604125977" width="13.047607421875" height="11.047648111979166" as="geometry" />
        </mxCell>
        <mxCell id="JT7VKMC9h3Lh3f7lyLex-170" value="" style="shape=stencil(lZPbbsIwEES/xq8re9fXZ0r/A4nQWKQJCqHA32PL0GYLscTbZjLHl9FY0OrYbg6NQHmcxmHfnON2agV9CMTYt80YpzQJWgta7Yax+RqHU78t34dNdubpe/jJK1wKp6QEKTOG8lqkX+GzAF3sZ0AwgPoNv7eAgfmTYJb9zkBA5lcGLFUACU4xIJ2I1DJgERS/ATpwlR0MgXEMIAtUATRBIAZoC9ovA2SALANMPaV0Ys8BW08pZ8IBp8FWUlIEnsfq8aG8jhU0v3NIOYdl/1PvZlW8A2n46+0udl2p/fz//54nqbwRWt8A);fillColor=none;fontSize=30;strokeColor=#FF0000;" vertex="1" parent="1">
          <mxGeometry x="226.66668192545575" y="331.476193745931" width="6.666666666666667" height="6.095255533854167" as="geometry" />
        </mxCell>
        <mxCell id="JT7VKMC9h3Lh3f7lyLex-173" value="" style="shape=stencil(fZRJcsJADEVP4+2vltTjmpB7UIUJrhBMGWe6fdrlQBAO2vWg1+qvqZHVeb85tQ278zj0r+1ntx33jTw1zN1x3w7dWFeNrBtZ7fqhfRn69+N23p82k+W0eus/phe+Zo6cg3MTxu57ProePM/AoTveACWBg7InuGzY1+uo7COyYZ8FTvT7gmIAqSBoB5Qg3gAYxSuABcSPgRjvv8QF2fAQMjIrQKpoMQBC0hq8IBqifbgE8QoUJMODd0hadAgQw0P9sWgN0YGNKAmDSQMexQB4EaVYTA8c4LWGKZWGBmaIrtUUEekxQItaSnamKd4nrtYvG+0zFXPSQARFAyCQznQulw78v4HAOkiF4ZJReyDd/yWY7bOIaclm9yzmy83I+QXq4m8+7brDYR5vt/f386wezbNQ1j8=);fillColor=none;fontSize=30;strokeColor=#FF0000;" vertex="1" parent="1">
          <mxGeometry x="222.47620646158856" y="331.8571446736654" width="16.190475463867188" height="17.714304606119793" as="geometry" />
        </mxCell>
        <mxCell id="JT7VKMC9h3Lh3f7lyLex-174" value="" style="shape=stencil(hZTbboMwDIafJre/EjshyXXXvUel0oHGSkXpDm+/oExbTYV3Z5z/wyfZhnfX7nBpDdnrPI2v7Ud/nDvDT4aoP3ft1M/FMrw3vDuNU/syjbfzsX5fDotysd7G9+UPn5Vz1sLaBSP7VV2/jucKDP35PyCFbSAHuCT0DZwSICVYJ/SOkTSAkVkCCc5tAzGuI1CAp22gSWBZMns1QihAFIBnRKVJPiEEAQQG522AM7xMqSGQBlhkEkC0IN4GiNcplb6xArjSVjnoMhlqFMAhewmU2SsRHrqaHYKiD+uScxlbVKYAu9IHJEVPYFlwjvBawWBZb06ISv4Pm3a3fD9AMf5W+9QPQ70M9+/rU1Bc9Yzw/hs=);fillColor=none;fontSize=30;strokeColor=#FF0000;" vertex="1" parent="1">
          <mxGeometry x="221.90477498372394" y="332.61906687418616" width="21.333338419596355" height="22.4761962890625" as="geometry" />
        </mxCell>
        <mxCell id="JT7VKMC9h3Lh3f7lyLex-175" value="" style="shape=stencil(fZTLcoMwDEW/hu0d2/Jznab/kZmQwpRChpA+/r5mKCkioJ0xOpaufK2CDrfqdC0Lo25D372XX/V5qAp6KYyp26rs6yGvCjoWdLh0ffnWd/f2PH1fT2PkuProPscTvidOKwWlRsyon2nrsfE6AU3dLoAUYR2LNzBeiLfz7zk+gMJ+fAxIxOJ1PiEJgIVLHMhHuH0gJKjAFeQMEmDgIgNIQ+t9wDsEXhJFkJDB5aZy0dbNObcBve6qM/C0D1gL4hpcAgn3TAGRa8iqrCA69yTxDEEhCs4w/skZDlHoktEgw4CoZjNuAtrPBTwAC2UEgKC5hmxHEkSnteak5hq3rQTiBaV8bcJrcCDui/ycvBUuAZo/5uThJcHQq3oivOC7p2GxmB9/QF78D5tL3TTTrFr+Xw+nvDUNNjr+Ag==);fillColor=none;fontSize=30;strokeColor=#FF0000;" vertex="1" parent="1">
          <mxGeometry x="222.28573099772137" y="333.95240020751953" width="24.571441650390625" height="25.333328247070312" as="geometry" />
        </mxCell>
        <mxCell id="JT7VKMC9h3Lh3f7lyLex-176" value="" style="shape=stencil(fZTbbsIwDIafpre/Ejtxkmu2vQcSZVRjgICd3n6uOhiuVN+ljr/69Mcdry679anvKFyu5+Nb/zVsrruOnzqi4bDrz8NVTx0/d7zaHs/96/n4cdhM36f16Dme3o+f4x++Jy6GgBBGjMLPZLobXiZgPxwegNaQxfhHsOcvkGb8E1py/Akh2/8HxLgM1AZKFmAQO0ACFQtU5LYMlIpoU9IaqlNDiUg2JVaLE0ESxEbgCnaKzgXVTiFpSk6ErFMiA6glOjWkjGRTyoLmDJrb7foGSETNDpBBtgYRd3BjE2eAxizLAGmXogGKSsNpq8412xqKuF0axW9TUrG0ugyo1Mg+hxoh4gA6B5uS6jeRAxDEyrsWBEca+r6ClYY+qezMoUCsf9NBO8rIELb+jOZMgW9KvvtnFKenhGg71AqKk39AneXTEFz/2YZ8WJp/gB7+N+x22O+nBf14P9/Iapq2OT//Ag==);fillColor=none;fontSize=30;strokeColor=#FF0000;" vertex="1" parent="1">
          <mxGeometry x="223.04763285319012" y="335.8571548461914" width="28.761922200520832" height="29.333333333333332" as="geometry" />
        </mxCell>
        <mxCell id="JT7VKMC9h3Lh3f7lyLex-178" value="" style="shape=stencil(fZTZcoMwDEW/xq93bMnrc5r+R2ZCClMKGUK3v68Zd0Gk+E3IOr5Gm+LDrT1dG0X6Nk/jc/PenedW8YMi6oa2mbo5W4qPig+XcWqepvF1OJfv62mJXKyX8W254aNwRmtovWCkP4vr1/FYgL4bVkBixCDiHXzYj48emkW8sdBmHwgBXgJEiLYCMKyVQABVFLzbKrADpX3ABQQSgM2abh+wCVECztQBAm+yGhH8PpBf7CSQ/8rGfYASfBJAMHCVLJGFkQrBI1Q6wyRYqRANDFUAty1cdD/N8j9gkJwEIriS1ogky5AMuCLg4WRjLN1eSSrf3e9BlaoR9CY+v7+S0rvZXI3rN5CNv9m+dH1fVsP6fLsLsqvsET5+AQ==);fillColor=none;fontSize=30;strokeColor=#FF0000;" vertex="1" parent="1">
          <mxGeometry x="228.00001525878906" y="338.9047622680664" width="25.904764811197918" height="28.000030517578125" as="geometry" />
        </mxCell>
        <mxCell id="JT7VKMC9h3Lh3f7lyLex-179" value="" style="shape=stencil(hZTZboNADEW/hterGZvZntP0PyKFFFQKEaHb33cQIsG0uG+z3DP2eCv4cKtP16ogcxuH/rX6bM5jXfBTQdR0dTU0Y14VfCz4cOmH6mXo37vzvL+eJuW0eus/phe+Zs4aA2MmjMz3fHQ/eJ6Btun+A6LbB1IAlUJfokyK3iKw0FsDVgzEuLx3BxiuVADGdLcGIpLiUvBIQQDkwLQP+ATvBMAEDgpAMFYC+Qm/D7gS7GVUs5MK8LheAMdIrAA5z/IP3qguMSPIsPps0+4DFLYuBYJTwkqEECUQ4BSXcl6tTFwkkJLpXDlJWoheraWpNuUfkoFVgIBSdk9iWCVIDnajd2o35NqWhZT7zyoxtYgbfVw8/FNvtr2TEqIS0V/TYjVAdgDmrQEWOc6Lxzi7NG07T8P1/Xb85aN5dPLxBw==);fillColor=none;fontSize=30;strokeColor=#FF0000;" vertex="1" parent="1">
          <mxGeometry x="231.61906687418622" y="339.476193745931" width="28.95237986246745" height="29.71429951985677" as="geometry" />
        </mxCell>
        <mxCell id="JT7VKMC9h3Lh3f7lyLex-180" value="" style="shape=stencil(fZPLcoMwDEW/xts7svxep+l/ZCakMKWQIaSPv68ZNylKi3fC6Fi+kq4yu0t7ODeK6TJP42vz0R3nVpknxdwNbTN1c46U2SuzO41T8zKN1+FYvs+HJXOJ3sb35YbPwmkiEC0Y01c5uh88F6DvhhWQInQS+QxOlXwN7UW+JjizDURCcrKABvttIDiEKAEPW6ngA1hWMA6stwGXNVsBWAtXeZJNICMAZ+ArT7K5J3IKnkG8DRhGlBp8ggnbQO4JyznkvtlYAQheis6TqWnQHiQ3I1qkigbNt67fgXir+f9qILLIz8sVKrvqQFJBctCVHmmkh/yAVLn/j3VWbvoBcvBrvVPX98W56/+PVs1HxeZm/w0=);fillColor=none;fontSize=30;strokeColor=#FF0000;" vertex="1" parent="1">
          <mxGeometry x="236.57145182291669" y="344.8095270792643" width="24.571436564127605" height="24.952412923177082" as="geometry" />
        </mxCell>
        <mxCell id="JT7VKMC9h3Lh3f7lyLex-181" value="" style="shape=stencil(fZTJcoMwDIafhqtGtiwv5zR9j8yEFKYUMoRub18zNC0WQTcj/5+1oooOt+Z0rSuLt2kcXuvP9jw1FT1V1rZ9U4/tlE8VHSs6XIaxfhmH9/68fF9Ps3I+vQ0f8wtfC2cQAXHGLH4vpj/D8wJ0bb8CUgSiQm+AvaIn8OX7HoKij17GYxjQKoCBGEog3V0+BAKDsQWQQ4pxH/ABAhcAOYhKDh6lB0eAige24EuADaDiwTFQmTRH8GkfoCir5BmcBpDsQzBg3T5gN1UKHkxQAJJVigisdDr3VYQUHRhWAJYhxQBOycFYCaTcSg1A2Ydk75bH07rRO0CjjJIcjMTASkCb2U75d1Ped7KkKUBU9BZY6PNg0b5+s11WC+cXyIf/7XRpu25Zbut7uc2yadmEdPwB);fillColor=none;fontSize=30;strokeColor=#FF0000;" vertex="1" parent="1">
          <mxGeometry x="245.90478515625" y="345.95240020751953" width="19.04761250813802" height="20.285695393880207" as="geometry" />
        </mxCell>
        <mxCell id="JT7VKMC9h3Lh3f7lyLex-182" value="" style="endArrow=none;html=1;fontSize=30;exitX=0;exitY=0;exitDx=0;exitDy=0;entryX=0.649;entryY=0.992;entryDx=0;entryDy=0;entryPerimeter=0;strokeColor=#FF0000;curved=1;strokeWidth=2;" edge="1" parent="1" source="JT7VKMC9h3Lh3f7lyLex-5" target="JT7VKMC9h3Lh3f7lyLex-3">
          <mxGeometry width="50" height="50" relative="1" as="geometry">
            <mxPoint x="330" y="380" as="sourcePoint" />
            <mxPoint x="380" y="330" as="targetPoint" />
            <Array as="points">
              <mxPoint x="270" y="440" />
              <mxPoint x="290" y="380" />
            </Array>
          </mxGeometry>
        </mxCell>
        <mxCell id="JT7VKMC9h3Lh3f7lyLex-183" value="" style="endArrow=none;html=1;fontSize=30;strokeColor=#FF0000;strokeWidth=2;curved=1;exitX=1;exitY=0;exitDx=0;exitDy=0;entryX=0.449;entryY=0.985;entryDx=0;entryDy=0;entryPerimeter=0;" edge="1" parent="1" source="JT7VKMC9h3Lh3f7lyLex-5" target="JT7VKMC9h3Lh3f7lyLex-4">
          <mxGeometry width="50" height="50" relative="1" as="geometry">
            <mxPoint x="330" y="380" as="sourcePoint" />
            <mxPoint x="380" y="330" as="targetPoint" />
            <Array as="points">
              <mxPoint x="390" y="450" />
              <mxPoint x="360" y="380" />
            </Array>
          </mxGeometry>
        </mxCell>
        <mxCell id="JT7VKMC9h3Lh3f7lyLex-184" value="" style="ellipse;whiteSpace=wrap;html=1;fontSize=30;strokeColor=none;fillColor=#069968;rotation=-6;" vertex="1" parent="1">
          <mxGeometry x="232.43" y="422.90000000000003" width="22.76" height="12.34" as="geometry" />
        </mxCell>
        <mxCell id="JT7VKMC9h3Lh3f7lyLex-185" value="" style="ellipse;whiteSpace=wrap;html=1;fontSize=30;strokeColor=none;fillColor=#FF0000;rotation=75;" vertex="1" parent="1">
          <mxGeometry x="220.51999999999998" y="434.24" width="22.76" height="12.34" as="geometry" />
        </mxCell>
        <mxCell id="JT7VKMC9h3Lh3f7lyLex-186" value="" style="ellipse;whiteSpace=wrap;html=1;fontSize=30;strokeColor=none;fillColor=#0000C4;rotation=55;" vertex="1" parent="1">
          <mxGeometry x="232.76000000000002" y="439.64" width="30.43" height="17.15" as="geometry" />
        </mxCell>
        <mxCell id="JT7VKMC9h3Lh3f7lyLex-188" value="" style="ellipse;whiteSpace=wrap;html=1;fontSize=30;strokeColor=none;fillColor=#069968;rotation=-6;" vertex="1" parent="1">
          <mxGeometry x="322.88" y="370.29" width="17.14" height="12.34" as="geometry" />
        </mxCell>
        <mxCell id="JT7VKMC9h3Lh3f7lyLex-189" value="" style="ellipse;whiteSpace=wrap;html=1;fontSize=30;strokeColor=none;fillColor=#FF0000;rotation=75;" vertex="1" parent="1">
          <mxGeometry x="309.33000000000004" y="366.24" width="13.53" height="16.05" as="geometry" />
        </mxCell>
        <mxCell id="JT7VKMC9h3Lh3f7lyLex-190" value="" style="ellipse;whiteSpace=wrap;html=1;fontSize=30;strokeColor=none;fillColor=#0000C4;rotation=55;" vertex="1" parent="1">
          <mxGeometry x="320.06" y="353.62" width="17.05" height="20.62" as="geometry" />
        </mxCell>
        <mxCell id="JT7VKMC9h3Lh3f7lyLex-191" value="" style="endArrow=none;html=1;fontSize=30;strokeColor=#0000C4;strokeWidth=2;curved=1;exitX=1;exitY=0;exitDx=0;exitDy=0;entryX=0.5;entryY=1;entryDx=0;entryDy=0;" edge="1" parent="1" source="JT7VKMC9h3Lh3f7lyLex-184" target="JT7VKMC9h3Lh3f7lyLex-189">
          <mxGeometry width="50" height="50" relative="1" as="geometry">
            <mxPoint x="330" y="380" as="sourcePoint" />
            <mxPoint x="380" y="330" as="targetPoint" />
            <Array as="points">
              <mxPoint x="270" y="380" />
            </Array>
          </mxGeometry>
        </mxCell>
        <mxCell id="JT7VKMC9h3Lh3f7lyLex-192" value="" style="endArrow=none;html=1;fontSize=30;strokeColor=#0000C4;strokeWidth=2;curved=1;entryX=0;entryY=0.5;entryDx=0;entryDy=0;" edge="1" parent="1" target="JT7VKMC9h3Lh3f7lyLex-4">
          <mxGeometry width="50" height="50" relative="1" as="geometry">
            <mxPoint x="330" y="370" as="sourcePoint" />
            <mxPoint x="380" y="330" as="targetPoint" />
            <Array as="points">
              <mxPoint x="360" y="372" />
              <mxPoint x="360" y="330" />
            </Array>
          </mxGeometry>
        </mxCell>
        <mxCell id="JT7VKMC9h3Lh3f7lyLex-194" value="" style="shape=stencil(lVlbchoxEDwNv1OSRs9vx7mHq4xjKg64MM7j9pkNAXvVohf+MFZLmlf3jFjp3dvzw+t6FdzbYb/7vv61eTw8r/TLKoTN9nm93xzs00rvV3r3tNuvv+1379vH49+vD9PK6dOP3c9ph99HnBPnJlBwf45feJVY/n3z9bj+ZbP9tN5LLvP1UXK8vL7C/uX0zXj/KKHNAU1SIIAsIc0AZlMjFpgJPUAlkxNCkTS3IWQp/jJAVcr8BHUSiJMiRGHagtgQ0+nGZ4BdUi8DEhgdvTRypZSlzgMds3gCyKH3UnKi5EoZTkiR2lDAhmTZlQkg9W7NXlIjAIh0jtJItlYIXC7U6Ao25Co5EQC41QCVpEaF5LMrJXYCeslKut4EcBKJWxFgkS43XSlW8aREBwAnldFSFJ0n30LFoVuNFjyzwUutc4BxJ0vv2p9gVBmI0Zbe//f7xN2N8BIWkPdSSHpn4FbvqNEZTmjiyPoEJhRpZH0EH5mLSKpGFT/f30iMrFcgAEssth6qM4onlRDg/kopL5zT/mM91TbYf8HeG+OlmBBBKsmgiClnJjEAWGAms0pOIIVmA7sSCpUmacRJGYJgViVyQsGsyKJMqMCtpp2NCRV46aOSrtSd1EQZyaPunGvpet3xhI2Qs4vJyE0kb45m1VYhNYwBlck5xMFsYHGokBqWXYEUUIOGwQLHbGh+0Iex9G5AeUZqjDMQYAXEsnUA4MrWQAp9ksrces7NK4VqkvM5gPOY1Y/vdSfdpJyZklLGjkcKIzGoZz5VYTuvtKGKcJ9Am0gcSALtUnWga0r8aft3lcntnXQ83OD/CHVpjUsmCZTAQZaikXU6cCMrgshTqCvkSaz5bNHPeJnzI45sSufUhqLgaBPcgFCTcTwD4EAVaIvasIHhDOwdpKqpAgvECJFoFzlCFHEk/0YIiw4J3ggRqW8HiIVZcoTwtJ9vQMQpiBIzMH7RmIZpQ+61wQYxNq42oHrjjsLKAsWEP0Fh62PkwWJX4Ep8KhmpA2tLErQlC2yPT2ISSQwU1NDTHl2BmRx16NRPdI+GNIlwf64OCrTE1R/VxFsKEZJBuTWPsrkwA9mbTY6lEAKq1IXnhY7sC3+qAklc6jyxofenOF4s5fmVpic+dgJO8562SUhHxqpsikH9Mb+xODQoTRsiAhMsPb33nQFNIuvPgYON0WgfMKCjvt7sw8cD/9Pm5eX4+8Dn//c/CNhXxx8T9P4v);fillColor=none;fontSize=30;strokeColor=#FFFFFF;" vertex="1" parent="1">
          <mxGeometry x="243.23473249162942" y="439.6424757603237" width="6.530587332589286" height="18.48980712890625" as="geometry" />
        </mxCell>
        <mxCell id="JT7VKMC9h3Lh3f7lyLex-195" value="" style="endArrow=none;dashed=1;html=1;fontSize=30;strokeColor=#000000;strokeWidth=2;curved=1;entryX=0;entryY=1;entryDx=0;entryDy=0;" edge="1" parent="1" target="JT7VKMC9h3Lh3f7lyLex-3">
          <mxGeometry width="50" height="50" relative="1" as="geometry">
            <mxPoint x="165" y="430" as="sourcePoint" />
            <mxPoint x="215.14" y="360" as="targetPoint" />
            <Array as="points">
              <mxPoint x="180" y="390" />
            </Array>
          </mxGeometry>
        </mxCell>
        <mxCell id="JT7VKMC9h3Lh3f7lyLex-196" value="" style="endArrow=none;dashed=1;html=1;fontSize=30;strokeColor=#000000;strokeWidth=2;curved=1;" edge="1" parent="1" target="JT7VKMC9h3Lh3f7lyLex-79">
          <mxGeometry width="50" height="50" relative="1" as="geometry">
            <mxPoint x="260" y="310" as="sourcePoint" />
            <mxPoint x="303.9" y="253.67000000000002" as="targetPoint" />
            <Array as="points">
              <mxPoint x="310" y="270" />
            </Array>
          </mxGeometry>
        </mxCell>
        <mxCell id="JT7VKMC9h3Lh3f7lyLex-197" value="" style="endArrow=none;dashed=1;html=1;fontSize=30;strokeColor=#000000;strokeWidth=2;curved=1;entryX=0.914;entryY=0.825;entryDx=0;entryDy=0;entryPerimeter=0;" edge="1" parent="1" target="JT7VKMC9h3Lh3f7lyLex-4">
          <mxGeometry width="50" height="50" relative="1" as="geometry">
            <mxPoint x="500" y="440" as="sourcePoint" />
            <mxPoint x="370" y="330" as="targetPoint" />
            <Array as="points">
              <mxPoint x="510" y="400" />
            </Array>
          </mxGeometry>
        </mxCell>
        <mxCell id="JT7VKMC9h3Lh3f7lyLex-198" value="" style="endArrow=none;dashed=1;html=1;fontSize=30;strokeColor=#000000;strokeWidth=2;curved=1;exitX=0.038;exitY=0.764;exitDx=0;exitDy=0;exitPerimeter=0;" edge="1" parent="1" source="JT7VKMC9h3Lh3f7lyLex-5">
          <mxGeometry width="50" height="50" relative="1" as="geometry">
            <mxPoint x="320" y="440" as="sourcePoint" />
            <mxPoint x="160" y="480" as="targetPoint" />
            <Array as="points">
              <mxPoint x="210" y="550" />
            </Array>
          </mxGeometry>
        </mxCell>
        <mxCell id="JT7VKMC9h3Lh3f7lyLex-199" value="" style="endArrow=none;dashed=1;html=1;fontSize=30;strokeColor=#000000;strokeWidth=2;curved=1;exitX=1;exitY=0.5;exitDx=0;exitDy=0;" edge="1" parent="1" source="JT7VKMC9h3Lh3f7lyLex-5">
          <mxGeometry width="50" height="50" relative="1" as="geometry">
            <mxPoint x="320" y="440" as="sourcePoint" />
            <mxPoint x="510" y="370" as="targetPoint" />
            <Array as="points">
              <mxPoint x="470" y="480" />
            </Array>
          </mxGeometry>
        </mxCell>
      </root>
    </mxGraphModel>
  </diagram>
</mxfile>
